<?xml version="1.0" encoding="UTF-8"?>
<svg id="Layer_1" data-name="Layer 1" xmlns="http://www.w3.org/2000/svg" viewBox="0 0 214.4 67.3">
  <defs>
    <style>
      .cls-1 {
        fill: #d2202e;
      }

      .cls-2 {
        fill: #6d6e71;
      }
    </style>
  </defs>
  <g>
    <g>
      <path class="cls-1" d="m144.16,8.66h-.97v-.35h2.36v.35h-.97v2.84h-.42v-2.84Z"/>
      <path class="cls-1" d="m148.59,10.1c-.02-.44-.05-.98-.05-1.38h0c-.12.37-.24.77-.4,1.21l-.56,1.55h-.31l-.52-1.52c-.15-.45-.27-.86-.36-1.24h0c0,.4-.03.93-.06,1.41l-.09,1.37h-.39l.22-3.19h.53l.54,1.55c.13.39.24.74.32,1.07h0c.08-.32.2-.67.34-1.07l.57-1.55h.52l.2,3.19h-.41l-.08-1.4Z"/>
    </g>
    <g>
      <path class="cls-1" d="m11.78,4.16c-5.53,0-7.82,3.15-7.87,10.35H0V.41h32.08v14.11h-3.91c-.05-7.11-2.34-10.35-7.82-10.35h-.76v23.3c0,2.84.46,3.15,3.4,3.15h2.89v3.86H6.14v-3.86h2.94c2.94,0,3.35-.3,3.35-3.15V4.16h-.66Z"/>
      <path class="cls-1" d="m27.76,16.85c-.66-2.03-1.17-2.94-3-2.94h-1.06v-3.4h12.59v3.4h-1.22c-1.12,0-1.68.3-1.68,1.22,0,.36.15,1.02.46,2.03l3.45,11.78,4.26-11.93c.25-.66.35-1.22.35-1.62,0-1.17-.71-1.47-2.28-1.47h-.96v-3.4h12.28v3.4h-1.52c-1.07,0-1.57.35-1.57,1.17,0,.3.05.86.3,1.57l4.06,12.54,3.76-11.52c.41-1.22.51-2.08.51-2.49,0-.71-.61-1.27-1.62-1.27h-1.27v-3.4h10.56v3.4h-1.12c-1.37,0-2.08,1.01-2.84,3.3l-5.74,17.26h-5.99l-4.32-13.4-4.57,13.4h-6.09l-5.74-17.61Z"/>
      <path class="cls-1" d="m65.63,31.07h1.88c2.59,0,2.9-.71,2.9-3.04v-11.07c0-2.33-.31-3.04-2.9-3.04h-1.88v-3.4h10.97v17.51c0,2.33.36,3.04,2.94,3.04h1.52v3.4h-15.43v-3.4ZM73.05,0c2.13,0,3.81,1.62,3.81,3.76s-1.67,3.81-3.81,3.81-3.76-1.73-3.76-3.81,1.62-3.76,3.76-3.76Z"/>
      <path class="cls-1" d="m82.12,30.46l10.78-20.15-5.16,1.32c-4.28,1.09-4.86,2.92-3.52,8.34l-3.49.89-2.63-10.28,20.76-5.31.94,3.69-10.55,19.99,4.28-1.09c5.61-1.43,6.47-2.76,5-9.56l3.44-.88,2.83,11.07-21.74,5.56-.92-3.59Z"/>
      <path class="cls-1" d="m136.54,11.16c2.23,0,4.16.76,5.28,1.93,1.62,1.72,1.67,3.91,1.67,6.9v9.44c0,2.33.3,3.05,2.89,3.05h1.42v3.4h-13.86v-3.4h.56c2.59,0,2.94-.71,2.94-3.05v-9.44c0-3.35-.51-4.92-3.45-4.92s-5.63,2.69-5.63,6.65v7.72c0,2.33.3,3.05,2.89,3.05h.61v3.4h-13.05v-3.4h.56c2.59,0,2.94-.71,2.94-3.05v-9.44c0-3.35-.51-4.92-3.45-4.92s-5.63,2.69-5.63,6.65v7.72c0,2.33.3,3.05,2.89,3.05h.61v3.4h-14.11v-3.4h1.68c2.59,0,2.89-.71,2.89-3.05v-11.07c0-2.33-.3-3.05-2.89-3.05h-1.68v-3.4h10.61v4.06c2.54-3.3,5.03-4.82,8.27-4.82s5.48,1.62,6.6,4.87c2.84-3.25,5.33-4.87,8.43-4.87Z"/>
      <path class="cls-1" d="m158.88,11.01c8.22,0,13.55,5.18,13.55,12.89s-5.33,12.84-13.55,12.84-13.5-5.13-13.5-12.84,5.28-12.89,13.5-12.89Zm0,22.13c4.42,0,6.65-3.05,6.65-9.24s-2.23-9.29-6.65-9.29-6.6,3.1-6.6,9.29,2.18,9.24,6.6,9.24Z"/>
      <path class="cls-1" d="m174.29,34.56c2.07.52,3.25,2.49,2.73,4.56-.52,2.07-2.49,3.25-4.55,2.73-2.07-.52-3.29-2.55-2.78-4.57.5-2.02,2.54-3.24,4.6-2.72Zm2.33-24.38c.7-2.81,2.11-3.82,4.67-3.17,2.56.64,3.32,2.19,2.62,5-.58,2.31-3.56,8.79-7.35,19.98l-3.05-.76c2.03-11.47,2.5-18.58,3.12-21.04Z"/>
    </g>
  </g>
  <g>
    <path class="cls-2" d="m98.3,35.88h3.4v11.82h-3.54c-1.24-4.42-3.63-8.79-9.61-8.79-5.06,0-8,5.38-8,12.19s2.3,12.24,8.79,12.24c4.65,0,6.81-2.39,6.81-5.89v-1.75c0-1.56-1.24-2.21-2.44-2.21h-2.94v-3.4h16.61v3.4h-2.35c-1.98,0-2.44.46-2.44,2.3v10.58h-3.31l-1.7-2.35c-2.58,2.16-6.26,3.27-9.57,3.27-8.92,0-14.68-6.35-14.68-16.19,0-9.29,5.66-16.15,14.68-16.15,3.68,0,6.72,1.43,9.15,3.45l1.15-2.53Z"/>
    <path class="cls-2" d="m131.74,58.37v1.38c0,5.15-2.07,7.32-5.94,7.32-2.3,0-4.28-.97-4.65-3.4-1.7,2.58-4.65,3.4-7.54,3.4-3.59,0-6.39-1.7-6.39-5.84,0-8.92,13.8-4.6,13.8-11.09,0-2.95-2.48-3.5-4.92-3.5-1.29,0-3.45.41-4.28,1.52,1.7-.23,3.04.51,3.04,2.39,0,2.07-1.43,2.71-3.22,2.71-1.98,0-3.31-1.52-3.31-3.41,0-4.69,5.61-5.7,9.25-5.7,6.21,0,8.88,2.81,8.88,6.67v11.27c0,1.01.41,1.52,1.1,1.52s1.24-.64,1.24-3.5v-1.75h2.94Zm-10.72-3.36l-4.88,2.21c-1.33.6-2.76,1.33-2.76,3.5,0,1.93.87,2.9,2.76,2.9,3.13,0,4.88-2.67,4.88-5.61v-2.99Z"/>
    <path class="cls-2" d="m140.89,48.76h.09c1.79-2.9,3.73-4.6,7.31-4.6,3.04,0,5.24,1.38,6.12,4.37,2.02-2.71,4.14-4.37,7.64-4.37s6.39,2.35,6.39,6.49v10.86c0,1.33.55,1.84,1.84,1.84h2.44v3.04h-12.88v-3.04h1.33c1.29,0,1.84-.51,1.84-1.84v-10.86c0-1.84-1.47-2.9-3.27-2.9-2.71,0-5.11,2.44-5.11,5.47v8.28c0,1.33.55,1.84,1.84,1.84h1.24v3.04h-11.73v-3.04h1.38c1.29,0,1.84-.51,1.84-1.84v-9.66c0-2.39-.46-4.09-3.22-4.09s-5.15,2.71-5.15,5.47v8.28c0,1.33.55,1.84,1.84,1.84h1.38v3.04h-13.07v-3.04h2.58c1.29,0,1.84-.51,1.84-1.84v-11.78c0-1.33-.55-1.84-1.84-1.84h-2.58v-3.04h9.89v3.91Z"/>
    <path class="cls-2" d="m178.71,56.16c-.14,3.59.97,7.45,5.24,7.45,3.31,0,4.97-1.7,5.57-4.88h3.82c-.6,5.25-3.77,8.33-9.89,8.33-7.13,0-10.9-4-10.9-11.46,0-6.72,4.33-11.46,10.67-11.46,7.54,0,10.72,6.76,10.21,12.01h-14.72Zm8.56-3.04c.05-2.9-.87-5.75-4.14-5.75s-4.28,2.85-4.42,5.75h8.56Z"/>
    <path class="cls-2" d="m197.7,57.96c.92,4.05,3.73,6.03,7.77,6.03,1.61,0,3.59-.88,3.59-2.76,0-4.51-14.49-1.93-14.49-10.17,0-4.55,4.37-6.9,8.42-6.9,2.44,0,4.79.92,6.76,2.25l.92-1.56h2.53v7.68h-2.99c-1.1-3.36-3.27-5.06-6.81-5.06-1.52,0-3.5.64-3.5,2.48,0,3.59,14.49,1.89,14.49,10.31,0,4.83-4.09,6.81-8.42,6.81-2.76,0-5.52-.46-7.68-2.35l-.92,1.66h-3.04v-8.42h3.36Z"/>
  </g>
</svg>