<?xml version="1.0" encoding="UTF-8" standalone="no"?>
<!-- Created with Inkscape (http://www.inkscape.org/) -->

<svg
   width="453.02"
   height="136.16"
   version="1.1"
   viewBox="0 0 119.86 36.026"
   id="svg25"
   sodipodi:docname="twizmo-games.svg"
   inkscape:version="1.4.2 (ebf0e940d0, 2025-05-08)"
   xmlns:inkscape="http://www.inkscape.org/namespaces/inkscape"
   xmlns:sodipodi="http://sodipodi.sourceforge.net/DTD/sodipodi-0.dtd"
   xmlns="http://www.w3.org/2000/svg"
   xmlns:svg="http://www.w3.org/2000/svg">
  <defs
     id="defs25" />
  <sodipodi:namedview
     id="namedview25"
     pagecolor="#ffffff"
     bordercolor="#000000"
     borderopacity="0.25"
     inkscape:showpageshadow="2"
     inkscape:pageopacity="0.0"
     inkscape:pagecheckerboard="0"
     inkscape:deskcolor="#d1d1d1"
     inkscape:zoom="3.7663871"
     inkscape:cx="180.27887"
     inkscape:cy="67.438633"
     inkscape:window-width="2560"
     inkscape:window-height="1371"
     inkscape:window-x="0"
     inkscape:window-y="0"
     inkscape:window-maximized="1"
     inkscape:current-layer="svg25" />
  <g
     transform="translate(-1.6906 -10.416)"
     stroke-width=".26458"
     id="g25">
    <g
       transform="translate(-3.7125 2.8164)"
       fill="#b91c1c"
       id="g19">
      <path
         d="m21.304 9.4129h-13.995l-1.905 5.2578 1.905 0.7112c0.508-1.2192 1.0922-2.0066 2.0066-2.6924 0.7366-0.5588 1.651-0.9144 2.3622-0.9144 0.381 0 0.4318 0.127 0.4318 0.889v9.779c0.0254 1.6002-0.254 1.9304-1.7272 2.1336l-0.762 0.0508v2.0828h9.4234v-2.0828l-0.762-0.0508c-1.4732-0.2032-1.7526-0.5334-1.7272-2.1336v-9.8298c0-0.889 0-0.889 0.508-0.889 0.9144 0 1.8542 0.4826 2.794 1.397 0.5842 0.5588 0.7874 0.8636 1.651 2.2606l1.8542-0.7112z"
         aria-label="T"
         id="path13" />
      <path
         d="m33.205 21.91-1.524-4.445c-0.0762-0.2286-0.1016-0.3556-0.1016-0.5334 0-0.4826 0.3048-0.7366 1.016-0.8636l0.381-0.0508v-2.0574h-6.6548v2.0574l0.2794 0.0762c0.6604 0.2286 0.6858 0.254 1.0668 1.2446l0.1016 0.2794-1.4478 4.5974-1.8542-4.7498c-0.0508-0.1524-0.1016-0.3302-0.1016-0.4572 0-0.4572 0.4064-0.8128 1.0414-0.9398l0.3302-0.0508v-2.0574h-6.8326v2.0574l0.2794 0.1016c0.9906 0.4064 1.1938 0.6858 1.7018 2.1336l3.429 8.4582h2.9464l1.905-5.461 1.8796 5.461h3.0734l3.302-8.5852c0.4572-1.3462 1.016-1.905 1.9304-2.0574l0.2794-0.0508v-2.0574h-6.0706v2.0574l0.3048 0.0762c0.7366 0.2032 1.0922 0.508 1.0922 0.9652 0 0.1016-0.0254 0.254-0.0762 0.4064z"
         aria-label="w"
         id="path14" />
      <path
         d="m46.135 13.96h-1.5748l-4.4704 0.7366v2.0574l0.5334 0.0508c1.143 0.1524 1.4224 0.5842 1.397 2.0828v3.6576c-0.0254 1.4986-0.1016 1.651-1.1176 1.9304l-0.8128 0.1778v2.0574h7.9502v-2.0574l-0.7874-0.1778c-1.016-0.2794-1.0922-0.4318-1.1176-1.9304zm-2.2098-5.7912c-1.3716 0-2.5146 1.143-2.5146 2.4892 0 1.3462 1.0668 2.4384 2.413 2.4384 1.3716 0 2.5146-1.143 2.5146-2.5146 0-1.3716-1.0414-2.413-2.413-2.413z"
         aria-label="i"
         id="path15" />
      <path
         transform="rotate(-15)"
         d="m54.254 33.188-1.9558-0.6858c-1.1938 2.2098-2.5908 3.048-5.0546 3.048-0.254 0-0.4064 0-0.762-0.0508l7.2898-8.4582-0.8128-1.8796h-10.058l-1.524 4.191 2.032 0.7112c0.508-0.8382 0.762-1.1684 1.0922-1.4986 0.6858-0.6858 1.8034-1.0922 2.9464-1.0922 0.1778 0 0.381 0 0.762 0.0254l-7.2898 8.3566 0.635 2.0574h11.1z"
         aria-label="z"
         id="path16" />
      <path
         d="m66.43 17.363c0.9652-0.635 2.1082-1.0414 2.921-1.0414 0.7874 0 1.1176 0.4572 1.1176 1.4986v4.7244c0 1.4224-0.1778 1.7526-1.1176 1.9812l-0.4572 0.127v2.0574h7.2644v-2.0574l-0.4572-0.127c-0.9398-0.2286-1.1176-0.5588-1.1176-1.9812v-5.1816c0.8128-0.508 1.9558-0.889 2.6416-0.889 0.8636 0 1.397 0.5588 1.397 1.4478v4.6228c0 1.4224-0.1778 1.7526-1.1176 1.9812l-0.4572 0.127v2.0574h7.6454v-2.0574l-0.8382-0.1778c-1.016-0.2794-1.0922-0.4318-1.1176-1.9304v-4.9276c0-1.27-0.1778-1.8796-0.762-2.5654-0.7874-0.889-1.8542-1.3208-3.3274-1.3208-1.651 0-3.2512 0.4572-4.699 1.3208-0.9398-0.889-2.0828-1.3208-3.4798-1.3208-1.6764 0-3.2004 0.4064-4.4704 1.1684v-0.9398h-1.5748l-4.064 0.7366v2.0574l0.5588 0.0508c1.143 0.1524 1.4224 0.5842 1.397 2.0828v3.6576c-0.0254 1.4986-0.1016 1.651-1.1176 1.9304l-0.8382 0.1778v2.0574h7.6454v-2.0574l-0.4572-0.127c-0.9398-0.2286-1.1176-0.5588-1.1176-1.9812z"
         aria-label="m"
         id="path17" />
      <path
         d="m90.676 13.426c-4.1148 0-6.9088 2.5908-6.9088 6.4262 0 4.1656 2.7178 6.7818 7.0358 6.7818 4.2672 0 7.0358-2.5654 7.0358-6.5278 0-4.0894-2.794-6.6802-7.1628-6.6802zm0.1524 2.5908c1.6002 0 2.3876 1.3716 2.3876 4.191 0 2.5908-0.8128 3.9624-2.3876 3.9624-1.6256 0-2.4384-1.3462-2.4384-4.0132 0-2.7432 0.8128-4.1402 2.4384-4.1402z"
         aria-label="o"
         id="path18" />
      <path
         transform="rotate(15)"
         d="m104.39-2.3072c-1.7272 0-3.1496 1.3885-3.1496 3.048 0 1.7949 1.3885 3.2173 3.1157 3.2173 1.7272 0 3.1496-1.4224 3.1496-3.1496 0-1.7272-1.3885-3.1157-3.1157-3.1157zm1.3885-1.4901c0.23706-3.2512 0.44026-4.6736 1.1853-7.9587 0.67734-2.8109 0.8128-3.5221 0.8128-4.5043 0-2.2691-1.3208-3.7253-3.3528-3.7253-1.9304 0-3.4205 1.4901-3.4205 3.3867 0 1.1176 0.13547 1.9981 0.8128 5.0461 0.57574 2.5739 0.88054 4.6059 1.1853 7.7555z"
         aria-label="!"
         id="path19" />
    </g>
    <g
       transform="translate(-8.6284 11.301)"
       fill="#a3a3a3"
       id="g24">
      <path
         d="m60.316 28.004c1.524 0.0254 2.2352 0.5588 2.2352 1.6764 0 1.5748-1.6256 2.9972-3.4544 2.9972-2.5908 0-4.3942-2.5146-4.3942-6.1722 0-4.1148 1.6764-6.858 4.191-6.858 1.397 0 2.8194 0.635 3.9116 1.778 0.5842 0.5842 1.016 1.2192 1.7526 2.54l1.8288-0.635-1.5494-5.8166h-1.6256l-0.381 0.7366c-1.0668-0.6096-2.9464-1.0668-4.4196-1.0668-5.0292 0-8.5852 3.7084-8.5852 8.9916 0 2.7432 1.016 5.3848 2.6924 6.9342 1.3716 1.2954 3.3782 2.032 5.461 2.032 1.1684 0 2.5146-0.254 3.5052-0.6604 0.3302-0.1524 0.7112-0.3556 1.7272-0.9144l0.5842 1.4732h2.7686v-4.8514c-0.0254-1.6002 0.2032-1.9304 1.6002-2.1336l0.4064-0.0508v-2.0828h-8.255z"
         aria-label="G"
         id="path20" />
      <path
         d="m80.918 32.118c-0.4572 0.4318-0.4572 0.4318-0.635 0.4318s-0.381-0.127-0.4318-0.2794c-0.0762-0.1778-0.0762-0.1778-0.1016-1.143v-5.0038c0-1.3462-0.2794-2.159-0.9652-2.8194-0.889-0.8636-2.5654-1.3716-4.572-1.3716-3.2766 0-5.6388 1.4732-5.6388 3.5052 0 1.0922 0.8128 1.905 1.8796 1.905 1.2446 0 1.9812-0.7366 1.9558-1.9558 0-0.3556 0.0508-0.5334 0.2286-0.6604 0.3048-0.2794 0.8636-0.4572 1.397-0.4572 1.0922 0 1.6002 0.4318 1.6002 1.3716v1.2954c-1.397 0.127-2.6162 0.3556-3.7084 0.6858-2.54 0.762-3.81 2.1082-3.81 4.0386 0 2.0828 1.6256 3.4798 4.0386 3.4798 1.4478 0 2.7432-0.4318 4.0386-1.2954 0.6096 0.7874 1.7272 1.2954 2.921 1.2954 1.143 0 2.0828-0.381 3.2258-1.2954zm-5.2832-0.6096c-0.6604 0.6096-1.2954 0.889-2.0066 0.889s-1.1938-0.508-1.1938-1.27c0-1.0922 1.016-1.7526 3.2004-2.159z"
         aria-label="a"
         id="path21" />
      <path
         d="m87.588 25.794c0.9652-0.635 2.1082-1.0414 2.921-1.0414 0.7874 0 1.1176 0.4572 1.1176 1.4986v4.7244c0 1.4224-0.1778 1.7526-1.1176 1.9812l-0.4572 0.127v2.0574h7.2644v-2.0574l-0.4572-0.127c-0.9398-0.2286-1.1176-0.5588-1.1176-1.9812v-5.1816c0.8128-0.508 1.9558-0.889 2.6416-0.889 0.8636 0 1.397 0.5588 1.397 1.4478v4.6228c0 1.4224-0.1778 1.7526-1.1176 1.9812l-0.4572 0.127v2.0574h7.6454v-2.0574l-0.8382-0.1778c-1.016-0.2794-1.0922-0.4318-1.1176-1.9304v-4.9276c0-1.27-0.1778-1.8796-0.762-2.5654-0.7874-0.889-1.8542-1.3208-3.3274-1.3208-1.651 0-3.2512 0.4572-4.699 1.3208-0.9398-0.889-2.0828-1.3208-3.4798-1.3208-1.6764 0-3.2004 0.4064-4.4704 1.1684v-0.9398h-1.5748l-4.064 0.7366v2.0574l0.5588 0.0508c1.143 0.1524 1.4224 0.5842 1.397 2.0828v3.6576c-0.0254 1.4986-0.1016 1.651-1.1176 1.9304l-0.8382 0.1778v2.0574h7.6454v-2.0574l-0.4572-0.127c-0.9398-0.2286-1.1176-0.5588-1.1176-1.9812z"
         aria-label="m"
         id="path22" />
      <path
         d="m117.75 28.461c0-1.8034-0.2032-2.8702-0.6604-3.7084-0.9906-1.778-3.0226-2.8194-5.4864-2.8194-3.9116 0-6.6802 2.7178-6.6802 6.5532 0 3.8862 2.8956 6.6548 6.9088 6.6548 1.9304 0 3.683-0.6858 4.8006-1.905 0.4826-0.508 0.7874-0.9144 1.4224-1.9558l-2.1336-1.0414c-0.9906 1.4732-2.032 2.159-3.3274 2.159-1.9812 0-3.0988-1.4478-3.0734-3.937zm-8.0772-1.9558c0.0762-1.397 0.762-2.2352 1.905-2.2352s1.6256 0.635 1.6764 2.2352z"
         aria-label="e"
         id="path23" />
      <path
         d="m128.78 22.162h-1.6002l-0.3048 0.6096c-1.3716-0.6604-2.0828-0.8382-3.2766-0.8382-2.9972 0-5.1562 1.8542-5.1562 4.445 0 2.0574 1.4224 3.3782 4.064 3.7338l1.6256 0.2032c1.5748 0.2286 2.2352 0.5588 2.2352 1.1684 0 0.5842-0.9652 1.0668-2.2098 1.0668-1.016 0-2.1082-0.381-2.8194-1.016-0.3048-0.254-0.5334-0.508-1.143-1.2192l-1.9558 0.4064 1.016 4.2926h1.6764l0.3048-0.635c1.3208 0.5842 2.1082 0.762 3.3274 0.762 3.175 0 5.6134-2.0066 5.6134-4.572 0-0.9906-0.3556-1.905-1.0414-2.54-0.6858-0.6858-1.2192-0.9144-3.1242-1.27l-1.905-0.3556c-1.4224-0.254-1.9812-0.5842-1.9812-1.143s0.7366-0.9906 1.7526-0.9906c1.2954 0 2.3368 0.6096 3.302 1.9558l2.0828-0.3048z"
         aria-label="s"
         id="path24" />
    </g>
  </g>
</svg>
