<?xml version="1.0" encoding="UTF-8" standalone="no"?>
<!-- Created with Inkscape (http://www.inkscape.org/) -->

<svg
   width="453.0166"
   height="139.03732"
   viewBox="0 0 119.86064 36.786959"
   version="1.1"
   id="svg1"
   inkscape:version="1.4.2 (ebf0e940d0, 2025-05-08)"
   sodipodi:docname="twizmo-games.svg"
   xmlns:inkscape="http://www.inkscape.org/namespaces/inkscape"
   xmlns:sodipodi="http://sodipodi.sourceforge.net/DTD/sodipodi-0.dtd"
   xmlns="http://www.w3.org/2000/svg"
   xmlns:svg="http://www.w3.org/2000/svg">
  <sodipodi:namedview
     id="namedview1"
     pagecolor="#ffffff"
     bordercolor="#000000"
     borderopacity="0.25"
     inkscape:showpageshadow="2"
     inkscape:pageopacity="0.0"
     inkscape:pagecheckerboard="0"
     inkscape:deskcolor="#d1d1d1"
     inkscape:document-units="px"
     inkscape:zoom="2.0667789"
     inkscape:cx="180.47407"
     inkscape:cy="102.57507"
     inkscape:window-width="2560"
     inkscape:window-height="1371"
     inkscape:window-x="0"
     inkscape:window-y="0"
     inkscape:window-maximized="1"
     inkscape:current-layer="g25" />
  <defs
     id="defs1" />
  <g
     inkscape:label="Paths"
     inkscape:groupmode="layer"
     id="g25"
     transform="translate(-1.6905996,-9.654572)"
     style="display:inline">
    <g
       id="g19"
       inkscape:label="Twizmo!"
       transform="translate(-3.7125,2.8163793)"
       style="fill:#b91c1c;fill-opacity:1">
      <path
         d="M 21.30354,9.4129446 H 7.3081407 l -1.905,5.2577994 1.905,0.7112 c 0.508,-1.219199 1.0922,-2.006599 2.0066,-2.692399 0.7366003,-0.5588 1.6510003,-0.9144 2.3622003,-0.9144 0.381,0 0.4318,0.127 0.4318,0.889 v 9.778999 c 0.0254,1.6002 -0.254,1.9304 -1.7272,2.1336 l -0.7620003,0.0508 v 2.0828 h 9.4234003 v -2.0828 l -0.762,-0.0508 c -1.4732,-0.2032 -1.7526,-0.5334 -1.7272,-2.1336 v -9.829799 c 0,-0.889 0,-0.889 0.508,-0.889 0.9144,0 1.8542,0.4826 2.793999,1.397 0.5842,0.5588 0.7874,0.8636 1.651,2.260599 l 1.8542,-0.7112 z"
         id="text13"
         style="font-weight:600;font-size:25.4px;font-family:'URW Bookman';-inkscape-font-specification:'URW Bookman Semi-Bold';stroke-width:0.264583"
         inkscape:label="T"
         aria-label="T" />
      <path
         d="m 33.205118,21.909744 -1.524,-4.445 c -0.0762,-0.2286 -0.1016,-0.3556 -0.1016,-0.5334 0,-0.4826 0.3048,-0.7366 1.016,-0.8636 l 0.381,-0.0508 v -2.057399 h -6.6548 v 2.057399 l 0.2794,0.0762 c 0.6604,0.2286 0.6858,0.254 1.0668,1.2446 l 0.1016,0.2794 -1.4478,4.5974 -1.8542,-4.7498 c -0.0508,-0.1524 -0.1016,-0.3302 -0.1016,-0.4572 0,-0.4572 0.4064,-0.8128 1.0414,-0.9398 l 0.3302,-0.0508 v -2.057399 h -6.8326 v 2.057399 l 0.2794,0.1016 c 0.9906,0.4064 1.1938,0.6858 1.7018,2.1336 l 3.429,8.4582 h 2.9464 l 1.905,-5.461 1.8796,5.461 h 3.0734 l 3.301999,-8.5852 c 0.4572,-1.3462 1.016,-1.905 1.9304,-2.0574 l 0.2794,-0.0508 v -2.057399 h -6.070599 v 2.057399 l 0.3048,0.0762 c 0.7366,0.2032 1.092199,0.508 1.092199,0.9652 0,0.1016 -0.0254,0.254 -0.0762,0.4064 z"
         id="text14"
         style="font-weight:600;font-size:25.4px;font-family:'URW Bookman';-inkscape-font-specification:'URW Bookman Semi-Bold';stroke-width:0.264583"
         inkscape:label="w"
         aria-label="w" />
      <path
         d="m 46.13517,13.959545 h -1.5748 l -4.4704,0.736599 v 2.0574 l 0.5334,0.0508 c 1.143,0.1524 1.4224,0.5842 1.397,2.0828 v 3.6576 c -0.0254,1.4986 -0.1016,1.651 -1.1176,1.9304 l -0.8128,0.1778 v 2.0574 h 7.9502 v -2.0574 l -0.7874,-0.1778 c -1.016,-0.2794 -1.0922,-0.4318 -1.1176,-1.9304 z m -2.2098,-5.7912004 c -1.3716,0 -2.5146,1.143 -2.5146,2.4892004 0,1.3462 1.0668,2.4384 2.413,2.4384 1.3716,0 2.5146,-1.143 2.5146,-2.5146 0,-1.3716004 -1.0414,-2.4130004 -2.413,-2.4130004 z"
         id="text15"
         style="font-weight:600;font-size:25.4px;font-family:'URW Bookman';-inkscape-font-specification:'URW Bookman Semi-Bold';stroke-width:0.264583"
         inkscape:label="i"
         aria-label="i" />
      <path
         d="m 54.253545,33.187938 -1.9558,-0.6858 c -1.1938,2.2098 -2.5908,3.048 -5.0546,3.048 -0.254,0 -0.4064,0 -0.762,-0.0508 l 7.2898,-8.4582 -0.8128,-1.8796 h -10.0584 l -1.524,4.191 2.032,0.7112 c 0.508,-0.8382 0.762,-1.1684 1.0922,-1.4986 0.6858,-0.6858 1.8034,-1.0922 2.9464,-1.0922 0.1778,0 0.381,0 0.762,0.0254 l -7.2898,8.3566 0.635,2.0574 h 11.0998 z"
         id="text16"
         style="font-weight:600;font-size:25.4px;font-family:'URW Bookman';-inkscape-font-specification:'URW Bookman Semi-Bold';stroke-width:0.264583"
         inkscape:label="z"
         transform="rotate(-15)"
         aria-label="z" />
      <path
         d="m 66.429552,17.363144 c 0.9652,-0.635 2.1082,-1.0414 2.921,-1.0414 0.7874,0 1.1176,0.4572 1.1176,1.4986 v 4.7244 c 0,1.4224 -0.1778,1.7526 -1.1176,1.9812 l -0.4572,0.127 v 2.0574 h 7.2644 v -2.0574 l -0.4572,-0.127 c -0.9398,-0.2286 -1.1176,-0.5588 -1.1176,-1.9812 v -5.1816 c 0.8128,-0.508 1.9558,-0.889 2.6416,-0.889 0.8636,0 1.397,0.5588 1.397,1.4478 v 4.6228 c 0,1.4224 -0.1778,1.7526 -1.1176,1.9812 l -0.4572,0.127 v 2.0574 h 7.645399 v -2.0574 l -0.8382,-0.1778 c -1.016,-0.2794 -1.0922,-0.4318 -1.1176,-1.9304 v -4.9276 c 0,-1.27 -0.1778,-1.8796 -0.762,-2.5654 -0.787399,-0.888999 -1.854199,-1.320799 -3.327399,-1.320799 -1.651,0 -3.2512,0.4572 -4.699,1.320799 -0.9398,-0.888999 -2.0828,-1.320799 -3.4798,-1.320799 -1.6764,0 -3.2004,0.4064 -4.4704,1.168399 v -0.939799 h -1.5748 l -4.064,0.736599 v 2.0574 l 0.5588,0.0508 c 1.143,0.1524 1.4224,0.5842 1.397,2.0828 v 3.6576 c -0.0254,1.4986 -0.1016,1.651 -1.1176,1.9304 l -0.8382,0.1778 v 2.0574 h 7.6454 v -2.0574 l -0.4572,-0.127 c -0.9398,-0.2286 -1.1176,-0.5588 -1.1176,-1.9812 z"
         id="text17"
         style="font-weight:600;font-size:25.4px;font-family:'URW Bookman';-inkscape-font-specification:'URW Bookman Semi-Bold';stroke-width:0.264583"
         inkscape:label="m"
         aria-label="m" />
      <path
         d="m 90.675662,13.426183 c -4.1148,0 -6.9088,2.5908 -6.9088,6.4262 0,4.165599 2.7178,6.781799 7.0358,6.781799 4.267199,0 7.035799,-2.5654 7.035799,-6.527799 0,-4.0894 -2.794,-6.6802 -7.162799,-6.6802 z m 0.1524,2.5908 c 1.6002,0 2.3876,1.3716 2.3876,4.191 0,2.590799 -0.8128,3.962399 -2.3876,3.962399 -1.6256,0 -2.4384,-1.3462 -2.4384,-4.013199 0,-2.7432 0.8128,-4.1402 2.4384,-4.1402 z"
         id="text18"
         style="font-weight:600;font-size:25.4px;font-family:'URW Bookman';-inkscape-font-specification:'URW Bookman Semi-Bold';stroke-width:0.264583"
         inkscape:label="o"
         aria-label="o" />
      <path
         d="m 104.39448,-2.3071725 c -1.7272,0 -3.1496,1.38853465 -3.1496,3.04800292 0,1.79493508 1.38853,3.21733638 3.11574,3.21733638 1.7272,0 3.1496,-1.4224013 3.1496,-3.14960299 0,-1.72720166 -1.38854,-3.11573631 -3.11574,-3.11573631 z m 1.38854,-1.4901348 c 0.23706,-3.2512031 0.44026,-4.6736045 1.18533,-7.9586747 0.67734,-2.810936 0.8128,-3.522136 0.8128,-4.504271 0,-2.269068 -1.3208,-3.725337 -3.3528,-3.725337 -1.9304,0 -3.42054,1.490135 -3.42054,3.38667 0,1.117601 0.13547,1.998136 0.8128,5.046139 0.57574,2.5738687 0.88054,4.6058707 1.18534,7.7554737 z"
         id="text19"
         style="font-weight:600;font-size:33.8667px;font-family:'URW Bookman';-inkscape-font-specification:'URW Bookman Semi-Bold';stroke-width:0.264583"
         inkscape:label="!"
         transform="rotate(15)"
         aria-label="!" />
    </g>
    <g
       id="g24"
       inkscape:label="Games"
       transform="translate(-8.6284483,11.300572)"
       style="display:inline;fill:#a3a3a3;fill-opacity:1">
      <path
         d="m 60.315983,28.003591 c 1.524,0.0254 2.2352,0.5588 2.2352,1.6764 0,1.5748 -1.6256,2.9972 -3.4544,2.9972 -2.5908,0 -4.3942,-2.5146 -4.3942,-6.1722 0,-4.1148 1.6764,-6.858 4.191,-6.858 1.397,0 2.8194,0.635 3.9116,1.778 0.5842,0.5842 1.016,1.2192 1.7526,2.54 l 1.8288,-0.635 -1.5494,-5.8166 h -1.6256 l -0.381,0.7366 c -1.0668,-0.6096 -2.9464,-1.0668 -4.4196,-1.0668 -5.0292,0 -8.5852,3.7084 -8.5852,8.9916 0,2.7432 1.016,5.3848 2.6924,6.9342 1.3716,1.2954 3.3782,2.032 5.461,2.032 1.1684,0 2.5146,-0.254 3.5052,-0.6604 0.3302,-0.1524 0.7112,-0.3556 1.7272,-0.9144 l 0.5842,1.4732 h 2.7686 v -4.8514 c -0.0254,-1.6002 0.2032,-1.9304 1.6002,-2.1336 l 0.4064,-0.0508 v -2.0828 h -8.255 z"
         id="text20"
         style="font-weight:600;font-size:25.4px;font-family:'URW Bookman';-inkscape-font-specification:'URW Bookman Semi-Bold';stroke-width:0.264583"
         inkscape:label="G"
         aria-label="G" />
      <path
         d="m 80.918264,32.118384 c -0.4572,0.4318 -0.4572,0.4318 -0.635,0.4318 -0.1778,0 -0.381,-0.127 -0.4318,-0.2794 -0.0762,-0.1778 -0.0762,-0.1778 -0.1016,-1.143 v -5.0038 c 0,-1.3462 -0.2794,-2.159 -0.9652,-2.8194 -0.889,-0.8636 -2.5654,-1.3716 -4.572,-1.3716 -3.2766,0 -5.6388,1.4732 -5.6388,3.5052 0,1.0922 0.8128,1.905 1.8796,1.905 1.2446,0 1.9812,-0.7366 1.9558,-1.9558 0,-0.3556 0.0508,-0.5334 0.2286,-0.6604 0.3048,-0.2794 0.8636,-0.4572 1.397,-0.4572 1.0922,0 1.6002,0.4318 1.6002,1.3716 v 1.2954 c -1.397,0.127 -2.6162,0.3556 -3.7084,0.6858 -2.54,0.762 -3.81,2.1082 -3.81,4.0386 0,2.0828 1.6256,3.4798 4.0386,3.4798 1.4478,0 2.7432,-0.4318 4.0386,-1.2954 0.6096,0.7874 1.7272,1.2954 2.921,1.2954 1.143,0 2.0828,-0.381 3.2258,-1.2954 z m -5.2832,-0.6096 c -0.6604,0.6096 -1.2954,0.889 -2.0066,0.889 -0.7112,0 -1.1938,-0.508 -1.1938,-1.27 0,-1.0922 1.016,-1.7526 3.2004,-2.159 z"
         id="text21"
         style="font-weight:600;font-size:25.4px;font-family:'URW Bookman';-inkscape-font-specification:'URW Bookman Semi-Bold';stroke-width:0.264583"
         inkscape:label="a"
         aria-label="a" />
      <path
         d="m 87.588026,25.793757 c 0.9652,-0.635 2.1082,-1.0414 2.921,-1.0414 0.7874,0 1.1176,0.4572 1.1176,1.4986 v 4.7244 c 0,1.4224 -0.1778,1.7526 -1.1176,1.9812 l -0.4572,0.127 v 2.0574 h 7.2644 v -2.0574 l -0.4572,-0.127 c -0.9398,-0.2286 -1.1176,-0.5588 -1.1176,-1.9812 v -5.1816 c 0.8128,-0.508 1.9558,-0.889 2.6416,-0.889 0.8636,0 1.397,0.5588 1.397,1.4478 v 4.6228 c 0,1.4224 -0.1778,1.7526 -1.1176,1.9812 l -0.4572,0.127 v 2.0574 h 7.645404 v -2.0574 l -0.8382,-0.1778 c -1.016,-0.2794 -1.0922,-0.4318 -1.1176,-1.9304 v -4.9276 c 0,-1.27 -0.1778,-1.8796 -0.762,-2.5654 -0.7874,-0.889 -1.8542,-1.3208 -3.327404,-1.3208 -1.651,0 -3.2512,0.4572 -4.699,1.3208 -0.9398,-0.889 -2.0828,-1.3208 -3.4798,-1.3208 -1.6764,0 -3.2004,0.4064 -4.4704,1.1684 v -0.9398 h -1.5748 l -4.064,0.7366 v 2.0574 l 0.5588,0.0508 c 1.143,0.1524 1.4224,0.5842 1.397,2.0828 v 3.6576 c -0.0254,1.4986 -0.1016,1.651 -1.1176,1.9304 l -0.8382,0.1778 v 2.0574 h 7.6454 v -2.0574 l -0.4572,-0.127 c -0.9398,-0.2286 -1.1176,-0.5588 -1.1176,-1.9812 z"
         id="text22"
         style="font-weight:600;font-size:25.4px;font-family:'URW Bookman';-inkscape-font-specification:'URW Bookman Semi-Bold';stroke-width:0.264583"
         inkscape:label="m"
         aria-label="m" />
      <path
         d="m 117.75335,28.460784 c 0,-1.8034 -0.2032,-2.8702 -0.6604,-3.7084 -0.9906,-1.778 -3.0226,-2.8194 -5.4864,-2.8194 -3.9116,0 -6.6802,2.7178 -6.6802,6.5532 0,3.8862 2.8956,6.6548 6.9088,6.6548 1.9304,0 3.683,-0.6858 4.8006,-1.905 0.4826,-0.508 0.7874,-0.9144 1.4224,-1.9558 l -2.1336,-1.0414 c -0.9906,1.4732 -2.032,2.159 -3.3274,2.159 -1.9812,0 -3.0988,-1.4478 -3.0734,-3.937 z m -8.0772,-1.9558 c 0.0762,-1.397 0.762,-2.2352 1.905,-2.2352 1.143,0 1.6256,0.635 1.6764,2.2352 z"
         id="text23"
         style="font-weight:600;font-size:25.4px;font-family:'URW Bookman';-inkscape-font-specification:'URW Bookman Semi-Bold';stroke-width:0.264583"
         inkscape:label="e"
         aria-label="e" />
      <path
         d="m 128.78268,22.161584 h -1.6002 l -0.3048,0.6096 c -1.3716,-0.6604 -2.0828,-0.8382 -3.2766,-0.8382 -2.9972,0 -5.1562,1.8542 -5.1562,4.445 0,2.0574 1.4224,3.3782 4.064,3.7338 l 1.6256,0.2032 c 1.5748,0.2286 2.2352,0.5588 2.2352,1.1684 0,0.5842 -0.9652,1.0668 -2.2098,1.0668 -1.016,0 -2.1082,-0.381 -2.8194,-1.016 -0.3048,-0.254 -0.5334,-0.508 -1.143,-1.2192 l -1.9558,0.4064 1.016,4.2926 h 1.6764 l 0.3048,-0.635 c 1.3208,0.5842 2.1082,0.762 3.3274,0.762 3.175,0 5.6134,-2.0066 5.6134,-4.572 0,-0.9906 -0.3556,-1.905 -1.0414,-2.54 -0.6858,-0.6858 -1.2192,-0.9144 -3.1242,-1.27 l -1.905,-0.3556 c -1.4224,-0.254 -1.9812,-0.5842 -1.9812,-1.143 0,-0.5588 0.7366,-0.9906 1.7526,-0.9906 1.2954,0 2.3368,0.6096 3.302,1.9558 l 2.0828,-0.3048 z"
         id="text24"
         style="font-weight:600;font-size:25.4px;font-family:'URW Bookman';-inkscape-font-specification:'URW Bookman Semi-Bold';stroke-width:0.264583"
         inkscape:label="s"
         aria-label="s" />
    </g>
  </g>
</svg>
