<?xml version="1.0" encoding="UTF-8" standalone="no"?>
<!-- Created with Inkscape (http://www.inkscape.org/) -->

<svg
   width="75.468681"
   height="77.492096"
   viewBox="0 0 19.967754 20.503118"
   version="1.1"
   id="svg1"
   xmlns="http://www.w3.org/2000/svg"
   xmlns:svg="http://www.w3.org/2000/svg">
  <defs
     id="defs1" />
  <g
     id="g25"
     transform="translate(-2.754984,-14.047794)"
     style="display:inline;opacity:1">
    <g
       id="g19"
       transform="translate(3.4387268,8.0666471)"
       style="fill:#b91c1c;fill-opacity:1">
      <path
         d="m 5.8274806,6.4586372 h 6.9453044 q 0.390674,0 0.781347,-0.028939 0.390674,-0.043408 0.766878,-0.1302245 0.448551,-0.1012857 0.882632,-0.2025714 0.448551,-0.1157551 0.897102,-0.1157551 1.157551,0 1.620571,0.6511224 0.46302,0.6366529 0.694531,1.6350405 L 19.211662,11.5808 q 0.07235,0.318326 0.07235,0.593244 0,0.752408 -0.47749,1.18649 -0.47749,0.419612 -1.215428,0.419612 -0.636653,0 -1.012857,-0.390673 Q 16.216499,12.98433 15.95605,12.405555 15.695601,11.826779 15.391744,11.248004 15.102356,10.669228 14.610397,10.278555 14.132908,9.8734121 13.279214,9.8734121 H 12.859602 V 21.752777 q 0,0.593245 0.289387,0.911572 0.289388,0.318326 0.651123,0.564306 0.376204,0.23151 0.665591,0.607714 0.289388,0.361734 0.289388,1.070734 0,0.839225 -0.47749,1.215429 -0.46302,0.361734 -1.258836,0.361734 H 5.5670316 q -0.7813468,0 -1.2588365,-0.376204 -0.4774897,-0.390673 -0.4774897,-1.215428 0,-0.694531 0.2893877,-1.056265 0.2893877,-0.361735 0.6655917,-0.607714 0.376204,-0.24598 0.6655917,-0.549837 0.2893877,-0.318326 0.2893877,-0.926041 V 9.8734121 H 5.3210521 q -0.8536937,0 -1.3456528,0.4051429 -0.4774898,0.390673 -0.7813468,0.969449 -0.3038571,0.578775 -0.5643061,1.17202 -0.2604489,0.578775 -0.6221835,0.983918 -0.3472653,0.390674 -0.9839182,0.390674 -0.75240804,0 -1.22989775,-0.419613 -0.47748971,-0.434081 -0.47748971,-1.200959 0,-0.274918 0.0723469,-0.593244 L 0.16995096,8.2673104 Q 0.41593051,7.2544534 0.87895083,6.6178005 1.3419712,5.9811475 2.499522,5.9811475 q 0.4196121,0 0.8102855,0.1012857 0.4051428,0.1012857 0.8102856,0.188102 0.4196122,0.086816 0.8392243,0.1446939 0.4340816,0.043408 0.8681632,0.043408 z"
         id="text13"
         style="font-weight:bold;font-size:29.6333px;font-family:Caprasimo;-inkscape-font-specification:'Caprasimo Bold';stroke-width:0.264583"
         aria-label="T" />
    </g>
  </g>
</svg>
