<?xml version="1.0" encoding="UTF-8"?>
<svg width="469.63" height="143.69" version="1.1" viewBox="0 0 124.26 38.018" xmlns="http://www.w3.org/2000/svg">
 <g transform="translate(-2.755 -14.048)" style="display:none">
  <g transform="translate(3.4387 8.0666)" style="fill:#b91c1c">
   <text x="-1.1033549" y="26.484266" style="fill:#b91c1c;font-family:Caprasimo;font-size:29.633px;font-weight:bold;stroke-width:.26458" xml:space="preserve"><tspan x="-1.1033549" y="26.484266" style="fill:#b91c1c;font-family:Caprasimo;font-size:29.633px;font-weight:bold;stroke-width:.26458">T</tspan></text>
   <text x="13.457944" y="26.223818" style="fill:#b91c1c;font-family:Caprasimo;font-size:25.4px;font-weight:bold;stroke-width:.26458" xml:space="preserve"><tspan x="13.457944" y="26.223818" style="fill:#b91c1c;font-family:Caprasimo;font-size:25.4px;font-weight:bold;stroke-width:.26458">w</tspan></text>
   <text x="37.684795" y="26.484266" style="fill:#b91c1c;font-family:Caprasimo;font-size:25.4px;font-weight:bold;stroke-width:.26458" xml:space="preserve"><tspan x="37.684795" y="26.484266" style="fill:#b91c1c;font-family:Caprasimo;font-size:25.4px;font-weight:bold;stroke-width:.26458">i</tspan></text>
   <text transform="rotate(-15.454)" x="39.76601" y="37.670071" style="fill:#b91c1c;font-family:Caprasimo;font-size:25.4px;font-weight:bold;stroke-width:.26458" xml:space="preserve"><tspan x="39.76601" y="37.670071" style="fill:#b91c1c;font-family:Caprasimo;font-size:25.4px;font-weight:bold;stroke-width:.26458">z</tspan></text>
   <text x="60.034737" y="27.542601" style="fill:#b91c1c;font-family:Caprasimo;font-size:25.4px;font-weight:bold;stroke-width:.26458" xml:space="preserve"><tspan x="60.034737" y="27.542601" style="fill:#b91c1c;font-family:Caprasimo;font-size:25.4px;font-weight:bold;stroke-width:.26458">m</tspan></text>
   <text x="83.070976" y="27.182932" style="fill:#b91c1c;font-family:Caprasimo;font-size:25.4px;font-weight:bold;stroke-width:.26458" xml:space="preserve"><tspan x="83.070976" y="27.182932" style="fill:#b91c1c;font-family:Caprasimo;font-size:25.4px;font-weight:bold;stroke-width:.26458">o</tspan></text>
   <text transform="rotate(15)" x="98.854858" y="3.8717148" style="fill:#b91c1c;font-family:Caprasimo;font-size:29.633px;font-weight:bold;stroke-width:.26458" xml:space="preserve"><tspan x="98.854858" y="3.8717148" style="fill:#b91c1c;font-family:Caprasimo;font-size:29.633px;font-weight:bold;stroke-width:.26458">!</tspan></text>
  </g>
  <g transform="translate(-2.554 16.77)" style="display:inline;fill:#c0c0c0">
   <text x="48.936783" y="34.564293" style="fill:#c0c0c0;font-family:Caprasimo;font-size:25.4px;font-weight:bold;stroke-width:.26458" xml:space="preserve"><tspan x="48.936783" y="34.564293" style="fill:#c0c0c0;font-family:Caprasimo;font-size:25.4px;font-weight:bold;stroke-width:.26458">G</tspan></text>
   <text x="67.738708" y="34.936363" style="fill:#c0c0c0;font-family:Caprasimo;font-size:25.4px;font-weight:bold;stroke-width:.26458" xml:space="preserve"><tspan x="67.738708" y="34.936363" style="fill:#c0c0c0;font-family:Caprasimo;font-size:25.4px;font-weight:bold;stroke-width:.26458">a</tspan></text>
   <text x="81.629311" y="35.060387" style="fill:#c0c0c0;font-family:Caprasimo;font-size:25.4px;font-weight:bold;stroke-width:.26458" xml:space="preserve"><tspan x="81.629311" y="35.060387" style="fill:#c0c0c0;font-family:Caprasimo;font-size:25.4px;font-weight:bold;stroke-width:.26458">m</tspan></text>
   <text x="104.70483" y="34.81234" style="fill:#c0c0c0;font-family:Caprasimo;font-size:25.4px;font-weight:bold;stroke-width:.26458" xml:space="preserve"><tspan x="104.70483" y="34.81234" style="fill:#c0c0c0;font-family:Caprasimo;font-size:25.4px;font-weight:bold;stroke-width:.26458">e</tspan></text>
   <text x="117.68288" y="34.688316" style="fill:#c0c0c0;font-family:Caprasimo;font-size:25.4px;font-weight:bold;stroke-width:.26458" xml:space="preserve"><tspan x="117.68288" y="34.688316" style="fill:#c0c0c0;font-family:Caprasimo;font-size:25.4px;font-weight:bold;stroke-width:.26458">s</tspan></text>
  </g>
 </g>
 <g transform="translate(-2.755 -14.048)">
  <g transform="translate(3.4387 8.0666)" style="fill:#b91c1c">
   <path d="m5.8275 6.4586h6.9453q0.39067 0 0.78135-0.028939 0.39067-0.043408 0.76688-0.13022 0.44855-0.10129 0.88263-0.20257 0.44855-0.11576 0.8971-0.11576 1.1576 0 1.6206 0.65112 0.46302 0.63665 0.69453 1.635l0.79582 3.3135q0.07235 0.31833 0.07235 0.59324 0 0.75241-0.47749 1.1865-0.47749 0.41961-1.2154 0.41961-0.63665 0-1.0129-0.39067-0.36174-0.40514-0.62219-0.98392-0.26045-0.57878-0.56431-1.1576-0.28939-0.57878-0.78135-0.96945-0.47749-0.40514-1.3312-0.40514h-0.41961v11.879q0 0.59324 0.28939 0.91157 0.28939 0.31833 0.65112 0.56431 0.3762 0.23151 0.66559 0.60771 0.28939 0.36173 0.28939 1.0707 0 0.83922-0.47749 1.2154-0.46302 0.36173-1.2588 0.36173h-7.4517q-0.78135 0-1.2588-0.3762-0.47749-0.39067-0.47749-1.2154 0-0.69453 0.28939-1.0563 0.28939-0.36174 0.66559-0.60771 0.3762-0.24598 0.66559-0.54984 0.28939-0.31833 0.28939-0.92604v-11.879h-0.41961q-0.85369 0-1.3457 0.40514-0.47749 0.39067-0.78135 0.96945-0.30386 0.57878-0.56431 1.172-0.26045 0.57878-0.62218 0.98392-0.34727 0.39067-0.98392 0.39067-0.75241 0-1.2299-0.41961-0.47749-0.43408-0.47749-1.201 0-0.27492 0.072347-0.59324l0.78135-3.3135q0.24598-1.0129 0.709-1.6495 0.46302-0.63665 1.6206-0.63665 0.41961 0 0.81029 0.10129 0.40514 0.10129 0.81029 0.1881 0.41961 0.086816 0.83922 0.14469 0.43408 0.043408 0.86816 0.043408z" style="stroke-width:.26458" aria-label="T"/>
   <path d="m22.313 26.484h-1.8231q-0.83096 0-1.3146-0.45889-0.47129-0.47129-0.78135-1.1906l-3.4106-7.8383q-0.12402-0.31006-0.28525-0.59531-0.16123-0.28525-0.42168-0.5085-0.32246-0.28525-0.59531-0.5209-0.26045-0.24805-0.26045-0.73174 0-0.58291 0.35967-0.84336 0.37207-0.27285 0.90537-0.27285h6.412q1.1162 0 1.1162 1.0914 0 0.43408-0.22324 0.69453-0.21084 0.26045-0.5085 0.43408-0.28525 0.16123-0.5085 0.33486-0.21084 0.17363-0.21084 0.44648 0 0.27285 0.12402 0.63252 0.13642 0.35967 0.23564 0.60772l1.91 4.8493 1.9348-4.8121-0.32246-0.80615q-0.16123-0.40928-0.34727-0.68213-0.18604-0.28525-0.5209-0.57051-0.31006-0.27285-0.43408-0.48369-0.12402-0.22324-0.12402-0.64492 0-1.0914 1.1162-1.0914h6.1764q0.5209 0 0.73174 0.32246 0.22324 0.32246 0.22324 0.79375 0 0.44648-0.19844 0.69453-0.19844 0.23564-0.45889 0.39688-0.26045 0.14883-0.45889 0.31006-0.19844 0.14883-0.19844 0.42168 0 0.29766 0.09922 0.57051 0.11162 0.27285 0.21084 0.5457l1.8728 5.085 1.6123-4.6385q0.09922-0.27285 0.16123-0.5457 0.07441-0.27285 0.07441-0.55811 0-0.44648-0.24805-0.66973-0.23564-0.23564-0.5581-0.39688-0.32246-0.17363-0.57051-0.43408-0.23564-0.26045-0.23564-0.78135 0-0.47129 0.24805-0.79375t0.74414-0.32246h3.8323q0.5333 0 0.89297 0.27285 0.35967 0.27285 0.35967 0.84336 0 0.44648-0.16123 0.64492-0.14883 0.19844-0.47129 0.45889-0.57051 0.45889-0.80615 0.90537-0.23564 0.43408-0.49609 1.0914l-2.8525 7.243q-0.58291 1.5007-2.1208 1.5007h-1.8107q-0.81856 0-1.3146-0.47129-0.48369-0.47129-0.76895-1.1782l-1.5999-3.9191-1.8231 4.068q-0.31006 0.68213-0.81856 1.0914-0.5085 0.40928-1.2898 0.40928z" style="stroke-width:.26458" aria-label="w"/>
   <path d="m44.06 13.387q0.5085 0 0.78135 0.34727 0.28525 0.34727 0.28525 0.83096v8.1855q0 0.34726 0.0248 0.70693 0.03721 0.34727 0.28525 0.60772 0.32246 0.34727 0.5333 0.5457 0.22324 0.19844 0.22324 0.74414t-0.34727 0.84336q-0.33486 0.28525-0.86816 0.28525h-5.271q-0.5333 0-0.88057-0.28525-0.33486-0.28525-0.33486-0.84336 0-0.5333 0.21084-0.74414 0.21084-0.22324 0.5457-0.5457 0.24805-0.24805 0.27285-0.62012 0.03721-0.37207 0.03721-0.69453v-4.3284q0-0.24805-0.03721-0.5085-0.03721-0.27285-0.21084-0.45889-0.04961-0.06201-0.12402-0.09922-0.06201-0.03721-0.11162-0.08682-0.27285-0.28525-0.5085-0.45889-0.22324-0.18604-0.22324-0.64492 0-0.49609 0.31006-0.76894 0.31006-0.27285 0.73174-0.43408l2.6789-1.079q0.47129-0.18604 0.97978-0.33486 0.5085-0.16123 1.017-0.16123zm-1.8604-0.04961q-0.79375 0-1.5999-0.23564-0.80615-0.23564-1.3519-0.78135-0.5333-0.55811-0.5333-1.5007 0-0.94258 0.5457-1.4759 0.5457-0.5457 1.3519-0.76895 0.80615-0.22324 1.5875-0.22324 0.78135 0 1.5875 0.22324 0.81856 0.22324 1.3643 0.76895 0.55811 0.5333 0.55811 1.4759 0 0.95498-0.5457 1.5131-0.5457 0.5457-1.3643 0.78135-0.80615 0.22324-1.5999 0.22324z" style="stroke-width:.26458" aria-label="i"/>
   <path transform="rotate(-15.454)" d="m52.503 26.272q0 0.5209-0.26045 0.97978t-0.5457 0.86816l-5.147 7.367q0.81856-0.04961 1.4263-0.24805 0.62012-0.19844 1.1534-0.69453 0.5457-0.5085 1.1286-1.4635 0.24805-0.42168 0.48369-0.73174 0.24805-0.31006 0.80615-0.31006 0.39688 0 0.78135 0.29766 0.38447 0.29766 0.38447 0.73174 0 0.08682-0.0124 0.13643l-0.73174 3.8695q-0.18604 0.97978-1.1286 0.97978-0.5333 0-1.0418-0.19844-0.5085-0.18604-1.0542-0.18604h-6.4368q-0.48369 0-0.97978-0.12402-0.48369-0.12402-0.81856-0.43408-0.32246-0.32246-0.32246-0.91777 0-0.44648 0.14883-0.88057 0.16123-0.43408 0.40928-0.79375l5.2338-7.4166q-0.99219 0.02481-1.7487 0.39688-0.74414 0.37207-1.5007 1.5627-0.26045 0.40928-0.5333 0.73174-0.26045 0.32246-0.80615 0.32246-0.40928 0-0.79375-0.29766-0.37207-0.31006-0.37207-0.74414 0-0.09922 0.0124-0.14883l0.68213-3.3734q0.19844-0.97978 1.1286-0.97978 0.5457 0 1.0542 0.19844 0.5085 0.19844 1.0418 0.19844h6.5732q0.65732 0 1.2154 0.26045 0.57051 0.24805 0.57051 1.0418z" style="stroke-width:.26458" aria-label="z"/>
   <path d="m66.261 14.446q0.5085 0 0.76894 0.35967 0.27285 0.34726 0.27285 0.81855v1.2526q0.96738-0.91777 2.1332-1.6743 1.1782-0.75654 2.2944-0.75654 1.327 0 2.1208 0.76894t1.1038 1.8728q0.65732-0.64492 1.4139-1.2526t1.5751-0.99219q0.81855-0.39688 1.6619-0.39688 1.1782 0 1.9348 0.62012 0.76895 0.60772 1.1286 1.5751 0.37207 0.95498 0.37207 2.0092v5.1594q0 0.28525 0.03721 0.71934 0.03721 0.42168 0.27285 0.62012v0.0124q0.27285 0.28525 0.48369 0.5581 0.21084 0.26045 0.21084 0.69453 0 0.5457-0.33486 0.84336-0.33486 0.28525-0.86816 0.28525h-5.0974q-0.5085 0-0.79375-0.31006-0.28525-0.32246-0.28525-0.81856 0-0.45889 0.21084-0.70693 0.22324-0.24805 0.43408-0.5457 0.21084-0.31006 0.21084-0.89297v-4.2788q0-0.34726-0.07441-0.73174-0.07441-0.39688-0.29766-0.68213-0.22324-0.28525-0.66973-0.28525-0.40928 0-0.73174 0.22324-0.31006 0.22324-0.58291 0.49609v5.147q0 0.65732 0.21084 0.97978 0.21084 0.32246 0.42168 0.57051t0.21084 0.70693q0 0.5085-0.28525 0.81856-0.27285 0.31006-0.79375 0.31006h-5.0602q-0.5209 0-0.79375-0.31006-0.27285-0.32246-0.27285-0.81856 0-0.45889 0.21084-0.70693 0.21084-0.26045 0.42168-0.55811 0.21084-0.29766 0.21084-0.88057v-4.2788q0-0.34726-0.07441-0.73174-0.07441-0.39688-0.29766-0.68213-0.22324-0.28525-0.66973-0.28525-0.39688 0-0.71934 0.22324-0.32246 0.21084-0.58291 0.49609v5.147q0 0.66973 0.21084 0.99219t0.42168 0.57051q0.21084 0.23564 0.21084 0.69453 0 0.49609-0.27285 0.81856-0.27285 0.31006-0.79375 0.31006h-5.0974q-0.5333 0-0.86816-0.28525-0.33486-0.29766-0.33486-0.84336t0.24805-0.80615q0.26045-0.26045 0.5085-0.5581 0.24805-0.31006 0.24805-0.96738v-4.6013q0-0.5581-0.17363-0.83096-0.17363-0.28525-0.39688-0.44648-0.22324-0.16123-0.39688-0.35967-0.17363-0.21084-0.17363-0.62012 0-0.5085 0.29766-0.76895 0.31006-0.26045 0.73174-0.43408l2.6169-1.079q0.47129-0.19844 0.95498-0.34727 0.49609-0.14883 1.017-0.14883z" style="stroke-width:.26458" aria-label="m"/>
   <path d="m90.835 14.086q2.0464 0 3.5843 0.84336 1.5503 0.84336 2.4185 2.3688t0.86816 3.5843q0 2.0216-0.95498 3.5223-0.95498 1.4883-2.5673 2.3192-1.5999 0.81856-3.5595 0.81856-2.0588 0-3.6091-0.84336-1.5503-0.85576-2.4185-2.3937-0.85576-1.5503-0.85576-3.6091 0-2.0092 0.96738-3.4975 0.96738-1.4883 2.5797-2.2944 1.6123-0.81856 3.5471-0.81856zm0.70693 10.716q0.31006 0 0.43408-0.32246 0.13643-0.32246 0.17363-0.70693 0.03721-0.39688 0.03721-0.60771 0-0.70693-0.11162-1.4015-0.11162-0.70693-0.28525-1.3891-0.06201-0.27285-0.23564-0.84336-0.17363-0.58291-0.42168-1.2154-0.24805-0.63252-0.5457-1.079-0.29766-0.44648-0.63252-0.44648-0.28525 0-0.42168 0.32246-0.12402 0.32246-0.16123 0.71934-0.03721 0.38447-0.03721 0.58291 0 0.33486 0.09922 1.079 0.09922 0.73174 0.28525 1.6371 0.19844 0.90537 0.47129 1.7487 0.27285 0.83096 0.60772 1.3767 0.34727 0.5457 0.74414 0.5457z" style="stroke-width:.26458" aria-label="o"/>
   <path transform="rotate(15)" d="m103.44-17.746q1.6784 0 2.7492 0.78135 1.0852 0.78135 1.0852 2.59 0 0.50643-0.0868 1.0129-0.0723 0.50643-0.20257 0.99839l-1.8087 7.0321q-0.17363 0.69453-0.56431 1.1865-0.3762 0.47749-1.172 0.47749-0.79581 0-1.1865-0.49196-0.3762-0.49196-0.54983-1.172l-1.8231-7.0321q-0.13022-0.49196-0.21704-0.99839-0.07235-0.50643-0.07235-1.0129 0-1.8231 1.0852-2.59 1.0852-0.78135 2.7636-0.78135zm-0.10128 22.066q-0.99839 0-1.7508-0.53537-0.75241-0.53537-1.1865-1.3891-0.41961-0.85369-0.41961-1.7942 0-0.95498 0.41961-1.7942 0.43408-0.85369 1.1865-1.3746 0.75241-0.53537 1.7508-0.53537 1.0128 0 1.7653 0.53537 0.76688 0.5209 1.201 1.3601 0.43408 0.83922 0.43408 1.8087 0 0.95498-0.43408 1.8087-0.43408 0.83922-1.201 1.3746-0.76687 0.53537-1.7653 0.53537z" style="stroke-width:.26458" aria-label="!"/>
  </g>
  <g transform="translate(-2.554 16.77)" style="fill:#c0c0c0">
   <path d="m68.371 26.825q0 0.5457-0.24805 0.83096-0.24805 0.27285-0.57051 0.44648-0.32246 0.17363-0.57051 0.39688-0.24805 0.21084-0.24805 0.63252v4.5393q0 1.3891-1.3643 1.3891-0.5085 0-0.89297-0.31006-0.37207-0.29766-0.71934-0.59531-0.33486-0.31006-0.71934-0.31006-0.35967 0-0.78135 0.18604-0.40928 0.18604-0.74414 0.33486-0.71934 0.33486-1.4511 0.5085-0.73174 0.17363-1.5379 0.17363-2.7905 0-4.7377-1.1286-1.9472-1.141-2.9642-3.175-1.017-2.0464-1.017-4.7749 0-1.9348 0.71934-3.5843 0.71934-1.6619 1.9968-2.8897 1.2774-1.2278 2.9518-1.91 1.6867-0.69453 3.5967-0.69453 0.73174 0 1.4511 0.09922 0.71934 0.08682 1.4139 0.29766 0.35967 0.09922 0.69453 0.19844 0.34727 0.09922 0.71934 0.09922 0.32246 0 0.58291-0.16123 0.27285-0.17363 0.5333-0.33486 0.27285-0.16123 0.59531-0.16123 0.63252 0 0.81856 0.39688 0.19844 0.39688 0.34727 0.89297 0.11162 0.35967 0.29766 0.93018 0.19844 0.57051 0.39688 1.2154 0.21084 0.63252 0.34727 1.1906 0.13642 0.5581 0.13642 0.88057 0 0.59531-0.47129 0.89297-0.47129 0.28525-1.0046 0.28525-0.5457 0-0.81856-0.27285-0.27285-0.27285-0.5457-0.69453-0.62012-0.94258-1.203-1.6619-0.58291-0.73174-1.3767-1.141-0.78135-0.40928-2.0216-0.40928-1.1906 0-1.972 0.5333-0.78135 0.5209-1.2402 1.3891-0.44648 0.85576-0.64492 1.8728-0.18604 1.0046-0.18604 1.9844 0 0.71934 0.08682 1.4635 0.09922 0.73174 0.29766 1.4263 0.27285 0.93018 0.81856 1.7983 0.5581 0.85576 1.3767 1.4015 0.81855 0.5457 1.8728 0.5457 0.44648 0 0.70693-0.14883 0.26045-0.16123 0.26045-0.65732v-1.91q0-0.32246-0.12402-0.43408t-0.37207-0.26045q-0.32246-0.19844-0.70693-0.38447-0.37207-0.19844-0.63252-0.47129-0.26045-0.28525-0.26045-0.74414 0-0.69453 0.43408-0.97978 0.43408-0.29766 1.0666-0.29766h6.1392q0.63252 0 1.0542 0.28525 0.43408 0.28525 0.43408 0.97979z" style="stroke-width:.26458" aria-label="G"/>
   <path d="m68.235 32.084q0-1.141 0.5333-1.8976 0.5333-0.76895 1.3891-1.2278 0.86816-0.47129 1.8728-0.66973 1.0046-0.19844 1.9348-0.19844 0.27285 0 0.5581 0.0124 0.28525 0 0.55811 0.04961v-3.2246q0-0.31006-0.13643-0.71934-0.12402-0.40928-0.5209-0.40928-0.38447 0-0.48369 0.32246-0.08682 0.31006-0.08682 0.59531 0 0.12402 0 0.26045 0.0124 0.12402 0.0124 0.26045 0 1.2774-0.88057 1.7983-0.88057 0.5085-2.0092 0.5085-0.94258 0-1.6371-0.42168-0.69453-0.42168-0.69453-1.4883 0-0.42168 0.16123-0.81856 0.17363-0.39688 0.43408-0.70693 0.75654-0.91777 1.8976-1.4015 1.1534-0.48369 2.4185-0.65732 1.2774-0.18604 2.3937-0.18604 1.265 0 2.3192 0.35967t1.6867 1.203q0.63252 0.83096 0.63252 2.2448v5.7175q0 0.21084 0.09922 0.37207 0.09922 0.16123 0.33486 0.16123 0.18604 0 0.31006-0.11162 0.13643-0.12402 0.32246-0.12402 0.35967 0 0.5333 0.24805 0.18604 0.24805 0.18604 0.58291 0 0.86816-0.5333 1.5007-0.5209 0.62012-1.3022 0.94258-0.78135 0.33486-1.5751 0.33486-0.93018 0-1.8852-0.40928-0.94258-0.40928-1.3022-1.2774-0.63252 0.88057-1.7363 1.2898-1.0914 0.39688-2.1456 0.39688-0.96738 0-1.8107-0.35967-0.83096-0.37207-1.3395-1.0914t-0.5085-1.7611zm5.5935-1.0914q0 0.49609 0.23564 0.94258 0.23564 0.43408 0.80615 0.43408 0.11162 0 0.21084-0.02481v-2.5673q-0.21084-0.08682-0.43408-0.08682-0.47129 0-0.64492 0.47129-0.17363 0.45889-0.17363 0.83096z" style="stroke-width:.26458" aria-label="a"/>
   <path d="m87.855 21.964q0.5085 0 0.76894 0.35967 0.27285 0.34726 0.27285 0.81855v1.2526q0.96738-0.91777 2.1332-1.6743 1.1782-0.75654 2.2944-0.75654 1.327 0 2.1208 0.76894t1.1038 1.8728q0.65732-0.64492 1.4139-1.2526t1.5751-0.99219q0.81856-0.39688 1.6619-0.39688 1.1782 0 1.9348 0.62012 0.76895 0.60772 1.1286 1.5751 0.37207 0.95498 0.37207 2.0092v5.1594q0 0.28525 0.0372 0.71934 0.0372 0.42168 0.27286 0.62012v0.0124q0.27285 0.28525 0.48369 0.5581 0.21084 0.26045 0.21084 0.69453 0 0.5457-0.33487 0.84336-0.33486 0.28525-0.86816 0.28525h-5.0974q-0.5085 0-0.79375-0.31006-0.28525-0.32246-0.28525-0.81856 0-0.45889 0.21084-0.70693 0.22324-0.24805 0.43408-0.5457 0.21084-0.31006 0.21084-0.89297v-4.2788q0-0.34726-0.07441-0.73174-0.07441-0.39688-0.29766-0.68213-0.22324-0.28525-0.66973-0.28525-0.40928 0-0.73174 0.22324-0.31006 0.22324-0.58291 0.49609v5.147q0 0.65732 0.21084 0.97978 0.21084 0.32246 0.42168 0.57051t0.21084 0.70693q0 0.5085-0.28525 0.81856-0.27285 0.31006-0.79375 0.31006h-5.0602q-0.5209 0-0.79375-0.31006-0.27285-0.32246-0.27285-0.81856 0-0.45889 0.21084-0.70693 0.21084-0.26045 0.42168-0.55811 0.21084-0.29766 0.21084-0.88057v-4.2788q0-0.34726-0.07441-0.73174-0.07441-0.39688-0.29766-0.68213-0.22324-0.28525-0.66973-0.28525-0.39688 0-0.71934 0.22324-0.32246 0.21084-0.58291 0.49609v5.147q0 0.66973 0.21084 0.99219t0.42168 0.57051q0.21084 0.23564 0.21084 0.69453 0 0.49609-0.27285 0.81856-0.27285 0.31006-0.79375 0.31006h-5.0974q-0.5333 0-0.86816-0.28525-0.33486-0.29766-0.33486-0.84336 0-0.5457 0.24805-0.80615 0.26045-0.26045 0.5085-0.5581 0.24805-0.31006 0.24805-0.96738v-4.6013q0-0.5581-0.17363-0.83096-0.17363-0.28525-0.39688-0.44648-0.22324-0.16123-0.39688-0.35967-0.17363-0.21084-0.17363-0.62012 0-0.5085 0.29766-0.76894 0.31006-0.26045 0.73174-0.43408l2.6169-1.079q0.47129-0.19844 0.95498-0.34727 0.49609-0.14883 1.017-0.14883z" style="stroke-width:.26458" aria-label="m"/>
   <path d="m117.69 26.614q0 1.1038-0.65732 1.6743-0.64493 0.57051-1.7115 0.57051h-4.9981q0.28525 1.0666 1.017 1.7983 0.73174 0.71934 2.1084 0.71934 0.5457 0 1.079-0.22324 0.54571-0.23564 1.017-0.5457 0.4837-0.31006 0.84336-0.5333 0.35967-0.23564 0.54571-0.23564 0.35967 0 0.5209 0.26045 0.16123 0.24805 0.16123 0.57051 0 1.1286-0.5333 1.9844-0.5209 0.84336-1.3891 1.4015-0.85576 0.5581-1.8852 0.83096-1.017 0.28525-2.0092 0.28525-1.9472 0-3.4354-0.80615-1.4883-0.80615-2.3316-2.2572-0.83096-1.4635-0.83096-3.4354 0-2.1084 0.80615-3.6711 0.81856-1.5627 2.344-2.4185 1.5255-0.86816 3.6587-0.86816 1.4759 0 2.7657 0.5581 1.3022 0.55811 2.1084 1.6495t0.80615 2.6913zm-7.5902 0.33486q0 0.13643 0 0.27285h1.2898q0.47129 0 0.64492-0.21084 0.17363-0.22324 0.17363-0.66973 0-0.29766-0.0744-0.78135-0.0744-0.48369-0.29766-0.86816-0.21084-0.38447-0.62011-0.38447-0.37207 0-0.59532 0.31006-0.22324 0.29766-0.33486 0.75654-0.11162 0.44648-0.14883 0.88057-0.0372 0.43408-0.0372 0.69453z" style="stroke-width:.26458" aria-label="e"/>
   <path d="m124.01 23.712q-0.42168 0-0.75654 0.18604-0.33486 0.18604-0.33486 0.66973 0 0.39688 0.18603 0.60772 0.18604 0.21084 0.5333 0.35967 0.37207 0.16123 0.78135 0.23564 0.40928 0.07441 0.79375 0.16123 1.141 0.24805 2.1332 0.84336 0.99219 0.58291 1.5999 1.5131 0.62012 0.91777 0.62012 2.1828 0 1.6991-0.76894 2.7037-0.76895 1.0046-2.0464 1.4387-1.265 0.43408-2.7781 0.43408-0.38447 0-1.0666-0.09922-0.66972-0.09922-0.99218-0.27285h-0.0124q-0.12402-0.06201-0.40927-0.13643-0.28526-0.07441-0.42168-0.07441-0.38448 0-0.65733 0.29766-0.27285 0.31006-0.66972 0.31006-0.53331 0-0.84336-0.34727-0.29766-0.34726-0.45889-0.81855-0.14883-0.48369-0.27285-0.89297-0.0868-0.34727-0.19844-0.68213-0.11162-0.34727-0.11162-0.70693 0-0.64492 0.34727-1.0418 0.34726-0.39688 1.0046-0.39688 0.64493 0 1.0666 0.28525 0.42168 0.27285 0.74414 0.68213 0.33486 0.40928 0.66972 0.83096 0.34727 0.40928 0.83096 0.69453 0.48369 0.27285 1.2154 0.27285 0.5085 0 0.76895-0.29766 0.26044-0.31006 0.26044-0.79375 0-0.69453-0.37207-0.89297-0.37207-0.19844-0.95498-0.31006-1.0666-0.21084-2.034-0.49609-0.95498-0.28525-1.6991-0.78135-0.73174-0.49609-1.1658-1.3146-0.42168-0.81856-0.42168-2.1084 0-1.5255 0.83096-2.4805 0.83095-0.96738 2.1084-1.4263 1.2898-0.45889 2.6169-0.45889 0.50849 0 0.99219 0.03721 0.49609 0.03721 0.97978 0.19844 0.062 0.0124 0.28526 0.09922 0.23564 0.08682 0.45888 0.17363 0.22324 0.07441 0.22324 0.07441 0.40928 0 0.69454-0.28525 0.29765-0.29766 0.70693-0.29766 0.5209 0 0.76894 0.40928 0.24805 0.39688 0.34727 0.93018 0.11162 0.5333 0.17363 0.90537 0.0496 0.28525 0.0992 0.58291 0.0496 0.28525 0.0496 0.57051 0 0.49609-0.23564 0.94258-0.22325 0.43408-0.80616 0.43408t-1.0294-0.39688q-0.44649-0.40928-0.89297-0.93018t-1.0294-0.91777q-0.58291-0.40928-1.4511-0.40928z" style="stroke-width:.26458" aria-label="s"/>
  </g>
 </g>
</svg>
