<?xml version="1.0" encoding="UTF-8" standalone="no"?>
<!-- Created with Inkscape (http://www.inkscape.org/) -->

<svg
   width="469.62656"
   height="143.69054"
   viewBox="0 0 124.25535 38.018122"
   version="1.1"
   id="svg1"
   inkscape:version="1.4.2 (ebf0e940d0, 2025-05-08)"
   sodipodi:docname="logo-unoptomized.svg"
   xmlns:inkscape="http://www.inkscape.org/namespaces/inkscape"
   xmlns:sodipodi="http://sodipodi.sourceforge.net/DTD/sodipodi-0.dtd"
   xmlns="http://www.w3.org/2000/svg"
   xmlns:svg="http://www.w3.org/2000/svg">
  <sodipodi:namedview
     id="namedview1"
     pagecolor="#ffffff"
     bordercolor="#000000"
     borderopacity="0.25"
     inkscape:showpageshadow="2"
     inkscape:pageopacity="0.0"
     inkscape:pagecheckerboard="0"
     inkscape:deskcolor="#d1d1d1"
     inkscape:document-units="px"
     inkscape:zoom="2.9228668"
     inkscape:cx="215.54181"
     inkscape:cy="94.085712"
     inkscape:window-width="2560"
     inkscape:window-height="1371"
     inkscape:window-x="0"
     inkscape:window-y="0"
     inkscape:window-maximized="1"
     inkscape:current-layer="g25" />
  <defs
     id="defs1" />
  <g
     inkscape:label="Text"
     inkscape:groupmode="layer"
     id="layer1"
     transform="translate(-2.7549845,-14.047772)"
     style="display:none;opacity:1"
     sodipodi:insensitive="true">
    <g
       id="g12"
       inkscape:label="Twizmo!"
       transform="translate(3.4387268,8.0666471)"
       style="fill:#b91c1c;fill-opacity:1">
      <text
         xml:space="preserve"
         style="font-style:normal;font-variant:normal;font-weight:bold;font-stretch:normal;font-size:29.6333px;font-family:Caprasimo;-inkscape-font-specification:'Caprasimo Bold';text-align:start;writing-mode:lr-tb;direction:ltr;text-anchor:start;fill:#b91c1c;fill-opacity:1;stroke-width:0.264583"
         x="-1.1033549"
         y="26.484266"
         id="text1"
         inkscape:label="T"><tspan
           sodipodi:role="line"
           id="tspan1"
           style="font-style:normal;font-variant:normal;font-weight:bold;font-stretch:normal;font-size:29.6333px;font-family:Caprasimo;-inkscape-font-specification:'Caprasimo Bold';fill:#b91c1c;fill-opacity:1;stroke-width:0.264583"
           x="-1.1033549"
           y="26.484266">T</tspan></text>
      <text
         xml:space="preserve"
         style="font-style:normal;font-variant:normal;font-weight:bold;font-stretch:normal;font-size:25.4px;font-family:Caprasimo;-inkscape-font-specification:'Caprasimo Bold';text-align:start;writing-mode:lr-tb;direction:ltr;text-anchor:start;fill:#b91c1c;fill-opacity:1;stroke-width:0.264583"
         x="13.457944"
         y="26.223818"
         id="text2"
         inkscape:label="w"><tspan
           sodipodi:role="line"
           id="tspan2"
           style="font-style:normal;font-variant:normal;font-weight:bold;font-stretch:normal;font-size:25.4px;font-family:Caprasimo;-inkscape-font-specification:'Caprasimo Bold';fill:#b91c1c;fill-opacity:1;stroke-width:0.264583"
           x="13.457944"
           y="26.223818">w</tspan></text>
      <text
         xml:space="preserve"
         style="font-style:normal;font-variant:normal;font-weight:bold;font-stretch:normal;font-size:25.4px;font-family:Caprasimo;-inkscape-font-specification:'Caprasimo Bold';text-align:start;writing-mode:lr-tb;direction:ltr;text-anchor:start;fill:#b91c1c;fill-opacity:1;stroke-width:0.264583"
         x="37.684795"
         y="26.484266"
         id="text3"
         inkscape:label="i"><tspan
           sodipodi:role="line"
           id="tspan3"
           style="font-style:normal;font-variant:normal;font-weight:bold;font-stretch:normal;font-size:25.4px;font-family:Caprasimo;-inkscape-font-specification:'Caprasimo Bold';fill:#b91c1c;fill-opacity:1;stroke-width:0.264583"
           x="37.684795"
           y="26.484266">i</tspan></text>
      <text
         xml:space="preserve"
         style="font-style:normal;font-variant:normal;font-weight:bold;font-stretch:normal;font-size:25.4px;font-family:Caprasimo;-inkscape-font-specification:'Caprasimo Bold';text-align:start;writing-mode:lr-tb;direction:ltr;text-anchor:start;fill:#b91c1c;fill-opacity:1;stroke-width:0.264583"
         x="39.76601"
         y="37.670071"
         id="text4"
         transform="rotate(-15.454299)"
         inkscape:label="z"><tspan
           sodipodi:role="line"
           id="tspan4"
           style="font-style:normal;font-variant:normal;font-weight:bold;font-stretch:normal;font-size:25.4px;font-family:Caprasimo;-inkscape-font-specification:'Caprasimo Bold';fill:#b91c1c;fill-opacity:1;stroke-width:0.264583"
           x="39.76601"
           y="37.670071">z</tspan></text>
      <text
         xml:space="preserve"
         style="font-style:normal;font-variant:normal;font-weight:bold;font-stretch:normal;font-size:25.4px;font-family:Caprasimo;-inkscape-font-specification:'Caprasimo Bold';text-align:start;writing-mode:lr-tb;direction:ltr;text-anchor:start;fill:#b91c1c;fill-opacity:1;stroke-width:0.264583"
         x="60.034737"
         y="27.542601"
         id="text5"
         inkscape:label="m"><tspan
           sodipodi:role="line"
           id="tspan5"
           style="font-style:normal;font-variant:normal;font-weight:bold;font-stretch:normal;font-size:25.4px;font-family:Caprasimo;-inkscape-font-specification:'Caprasimo Bold';fill:#b91c1c;fill-opacity:1;stroke-width:0.264583"
           x="60.034737"
           y="27.542601">m</tspan></text>
      <text
         xml:space="preserve"
         style="font-style:normal;font-variant:normal;font-weight:bold;font-stretch:normal;font-size:25.4px;font-family:Caprasimo;-inkscape-font-specification:'Caprasimo Bold';text-align:start;writing-mode:lr-tb;direction:ltr;text-anchor:start;fill:#b91c1c;fill-opacity:1;stroke-width:0.264583"
         x="83.070976"
         y="27.182932"
         id="text6"
         inkscape:label="o"><tspan
           sodipodi:role="line"
           id="tspan6"
           style="font-style:normal;font-variant:normal;font-weight:bold;font-stretch:normal;font-size:25.4px;font-family:Caprasimo;-inkscape-font-specification:'Caprasimo Bold';fill:#b91c1c;fill-opacity:1;stroke-width:0.264583"
           x="83.070976"
           y="27.182932">o</tspan></text>
      <text
         xml:space="preserve"
         style="font-style:normal;font-variant:normal;font-weight:bold;font-stretch:normal;font-size:29.6333px;font-family:Caprasimo;-inkscape-font-specification:'Caprasimo Bold';text-align:start;writing-mode:lr-tb;direction:ltr;text-anchor:start;fill:#b91c1c;fill-opacity:1;stroke-width:0.264583"
         x="98.854858"
         y="3.8717148"
         id="text7"
         transform="rotate(15)"
         inkscape:label="!"><tspan
           sodipodi:role="line"
           id="tspan7"
           style="font-style:normal;font-variant:normal;font-weight:bold;font-stretch:normal;font-size:29.6333px;font-family:Caprasimo;-inkscape-font-specification:'Caprasimo Bold';fill:#b91c1c;fill-opacity:1;stroke-width:0.264583"
           x="98.854858"
           y="3.8717148">!</tspan></text>
    </g>
    <g
       id="g13"
       inkscape:label="Games"
       transform="translate(-2.5539823,16.769861)"
       style="display:inline;fill:#c0c0c0;fill-opacity:1">
      <text
         xml:space="preserve"
         style="font-style:normal;font-variant:normal;font-weight:bold;font-stretch:normal;font-size:25.4px;font-family:Caprasimo;-inkscape-font-specification:'Caprasimo Bold';text-align:start;writing-mode:lr-tb;direction:ltr;text-anchor:start;fill:#c0c0c0;fill-opacity:1;stroke-width:0.264583"
         x="48.936783"
         y="34.564293"
         id="text8"
         inkscape:label="G"><tspan
           sodipodi:role="line"
           id="tspan8"
           style="font-style:normal;font-variant:normal;font-weight:bold;font-stretch:normal;font-size:25.4px;font-family:Caprasimo;-inkscape-font-specification:'Caprasimo Bold';fill:#c0c0c0;fill-opacity:1;stroke-width:0.264583"
           x="48.936783"
           y="34.564293">G</tspan></text>
      <text
         xml:space="preserve"
         style="font-style:normal;font-variant:normal;font-weight:bold;font-stretch:normal;font-size:25.4px;font-family:Caprasimo;-inkscape-font-specification:'Caprasimo Bold';text-align:start;writing-mode:lr-tb;direction:ltr;text-anchor:start;fill:#c0c0c0;fill-opacity:1;stroke-width:0.264583"
         x="67.738708"
         y="34.936363"
         id="text9"
         inkscape:label="a"><tspan
           sodipodi:role="line"
           id="tspan9"
           style="font-style:normal;font-variant:normal;font-weight:bold;font-stretch:normal;font-size:25.4px;font-family:Caprasimo;-inkscape-font-specification:'Caprasimo Bold';fill:#c0c0c0;fill-opacity:1;stroke-width:0.264583"
           x="67.738708"
           y="34.936363">a</tspan></text>
      <text
         xml:space="preserve"
         style="font-style:normal;font-variant:normal;font-weight:bold;font-stretch:normal;font-size:25.4px;font-family:Caprasimo;-inkscape-font-specification:'Caprasimo Bold';text-align:start;writing-mode:lr-tb;direction:ltr;text-anchor:start;fill:#c0c0c0;fill-opacity:1;stroke-width:0.264583"
         x="81.629311"
         y="35.060387"
         id="text10"
         inkscape:label="m"><tspan
           sodipodi:role="line"
           id="tspan10"
           style="font-style:normal;font-variant:normal;font-weight:bold;font-stretch:normal;font-size:25.4px;font-family:Caprasimo;-inkscape-font-specification:'Caprasimo Bold';fill:#c0c0c0;fill-opacity:1;stroke-width:0.264583"
           x="81.629311"
           y="35.060387">m</tspan></text>
      <text
         xml:space="preserve"
         style="font-style:normal;font-variant:normal;font-weight:bold;font-stretch:normal;font-size:25.4px;font-family:Caprasimo;-inkscape-font-specification:'Caprasimo Bold';text-align:start;writing-mode:lr-tb;direction:ltr;text-anchor:start;fill:#c0c0c0;fill-opacity:1;stroke-width:0.264583"
         x="104.70483"
         y="34.81234"
         id="text11"
         inkscape:label="e"><tspan
           sodipodi:role="line"
           id="tspan11"
           style="font-style:normal;font-variant:normal;font-weight:bold;font-stretch:normal;font-size:25.4px;font-family:Caprasimo;-inkscape-font-specification:'Caprasimo Bold';fill:#c0c0c0;fill-opacity:1;stroke-width:0.264583"
           x="104.70483"
           y="34.81234">e</tspan></text>
      <text
         xml:space="preserve"
         style="font-style:normal;font-variant:normal;font-weight:bold;font-stretch:normal;font-size:25.4px;font-family:Caprasimo;-inkscape-font-specification:'Caprasimo Bold';text-align:start;writing-mode:lr-tb;direction:ltr;text-anchor:start;fill:#c0c0c0;fill-opacity:1;stroke-width:0.264583"
         x="117.68288"
         y="34.688316"
         id="text12"
         inkscape:label="s"><tspan
           sodipodi:role="line"
           id="tspan12"
           style="font-style:normal;font-variant:normal;font-weight:bold;font-stretch:normal;font-size:25.4px;font-family:Caprasimo;-inkscape-font-specification:'Caprasimo Bold';fill:#c0c0c0;fill-opacity:1;stroke-width:0.264583"
           x="117.68288"
           y="34.688316">s</tspan></text>
    </g>
  </g>
  <g
     inkscape:label="Paths"
     inkscape:groupmode="layer"
     id="g25"
     transform="translate(-2.7549845,-14.047772)"
     style="display:inline;opacity:1">
    <g
       id="g19"
       inkscape:label="Twizmo!"
       transform="translate(3.4387268,8.0666471)"
       style="fill:#b91c1c;fill-opacity:1">
      <path
         d="m 5.8274806,6.4586372 h 6.9453044 q 0.390674,0 0.781347,-0.028939 0.390674,-0.043408 0.766878,-0.1302245 0.448551,-0.1012857 0.882632,-0.2025714 0.448551,-0.1157551 0.897102,-0.1157551 1.157551,0 1.620571,0.6511224 0.46302,0.6366529 0.694531,1.6350405 L 19.211662,11.5808 q 0.07235,0.318326 0.07235,0.593244 0,0.752408 -0.47749,1.18649 -0.47749,0.419612 -1.215428,0.419612 -0.636653,0 -1.012857,-0.390673 Q 16.216499,12.98433 15.95605,12.405555 15.695601,11.826779 15.391744,11.248004 15.102356,10.669228 14.610397,10.278555 14.132908,9.8734121 13.279214,9.8734121 H 12.859602 V 21.752777 q 0,0.593245 0.289387,0.911572 0.289388,0.318326 0.651123,0.564306 0.376204,0.23151 0.665591,0.607714 0.289388,0.361734 0.289388,1.070734 0,0.839225 -0.47749,1.215429 -0.46302,0.361734 -1.258836,0.361734 H 5.5670316 q -0.7813468,0 -1.2588365,-0.376204 -0.4774897,-0.390673 -0.4774897,-1.215428 0,-0.694531 0.2893877,-1.056265 0.2893877,-0.361735 0.6655917,-0.607714 0.376204,-0.24598 0.6655917,-0.549837 0.2893877,-0.318326 0.2893877,-0.926041 V 9.8734121 H 5.3210521 q -0.8536937,0 -1.3456528,0.4051429 -0.4774898,0.390673 -0.7813468,0.969449 -0.3038571,0.578775 -0.5643061,1.17202 -0.2604489,0.578775 -0.6221835,0.983918 -0.3472653,0.390674 -0.9839182,0.390674 -0.75240804,0 -1.22989775,-0.419613 -0.47748971,-0.434081 -0.47748971,-1.200959 0,-0.274918 0.0723469,-0.593244 L 0.16995096,8.2673104 Q 0.41593051,7.2544534 0.87895083,6.6178005 1.3419712,5.9811475 2.499522,5.9811475 q 0.4196121,0 0.8102855,0.1012857 0.4051428,0.1012857 0.8102856,0.188102 0.4196122,0.086816 0.8392243,0.1446939 0.4340816,0.043408 0.8681632,0.043408 z"
         id="text13"
         style="font-weight:bold;font-size:29.6333px;font-family:Caprasimo;-inkscape-font-specification:'Caprasimo Bold';stroke-width:0.264583"
         inkscape:label="T"
         aria-label="T" />
      <path
         d="m 22.313217,26.484267 h -1.823144 q -0.830957,0 -1.314649,-0.458887 -0.471289,-0.471289 -0.781347,-1.190625 l -3.410645,-7.838281 q -0.124023,-0.310058 -0.285254,-0.595312 -0.16123,-0.285254 -0.421679,-0.508496 -0.322461,-0.285254 -0.595313,-0.520899 -0.260449,-0.248047 -0.260449,-0.731738 0,-0.58291 0.359668,-0.843359 0.37207,-0.272852 0.905371,-0.272852 h 6.412012 q 1.11621,0 1.11621,1.091406 0,0.434082 -0.223242,0.694531 -0.21084,0.26045 -0.508496,0.434083 -0.285254,0.16123 -0.508496,0.334863 -0.21084,0.173633 -0.21084,0.446484 0,0.272852 0.124024,0.63252 0.136425,0.359668 0.235644,0.607715 l 1.909961,4.849316 1.934766,-4.812109 -0.322461,-0.806153 q -0.161231,-0.409277 -0.347266,-0.682129 -0.186035,-0.285254 -0.520898,-0.570507 -0.310059,-0.272852 -0.434082,-0.483692 -0.124024,-0.223242 -0.124024,-0.644922 0,-1.091406 1.116211,-1.091406 h 6.176367 q 0.520899,0 0.731739,0.322461 0.223242,0.322461 0.223242,0.79375 0,0.446484 -0.198438,0.694531 -0.198437,0.235645 -0.458886,0.396875 -0.26045,0.148828 -0.458887,0.310059 -0.198438,0.148828 -0.198438,0.421679 0,0.297657 0.09922,0.570508 0.111621,0.272852 0.21084,0.545703 l 1.872754,5.084961 1.612304,-4.638476 q 0.09922,-0.272852 0.161231,-0.545703 0.07441,-0.272852 0.07441,-0.558106 0,-0.446484 -0.248047,-0.669726 -0.235644,-0.235645 -0.558105,-0.396875 -0.322461,-0.173633 -0.570508,-0.434082 -0.235645,-0.26045 -0.235645,-0.781348 0,-0.471289 0.248047,-0.79375 0.248047,-0.322461 0.744141,-0.322461 h 3.832324 q 0.533301,0 0.892969,0.272852 0.359668,0.272851 0.359668,0.843359 0,0.446484 -0.161231,0.644922 -0.148828,0.198437 -0.471289,0.458887 -0.570508,0.458886 -0.806152,0.905371 -0.235645,0.434082 -0.496094,1.091406 l -2.852539,7.242968 q -0.58291,1.500684 -2.120801,1.500684 h -1.810742 q -0.818555,0 -1.314648,-0.471289 -0.483692,-0.471289 -0.768946,-1.178223 l -1.599902,-3.91914 -1.823144,4.067968 q -0.310059,0.682129 -0.818555,1.091407 -0.508496,0.409277 -1.289844,0.409277 z"
         id="text14"
         style="font-weight:bold;font-size:25.4px;font-family:Caprasimo;-inkscape-font-specification:'Caprasimo Bold';stroke-width:0.264583"
         inkscape:label="w"
         aria-label="w" />
      <path
         d="m 44.0596,13.387391 q 0.508496,0 0.781348,0.347266 0.285254,0.347266 0.285254,0.830957 v 8.185547 q 0,0.347265 0.0248,0.706933 0.03721,0.347266 0.285254,0.607715 0.322461,0.347266 0.533301,0.545703 0.223242,0.198438 0.223242,0.744141 0,0.545703 -0.347266,0.843359 -0.334863,0.285254 -0.868164,0.285254 h -5.270996 q -0.5333,0 -0.880566,-0.285254 -0.334863,-0.285254 -0.334863,-0.843359 0,-0.533301 0.21084,-0.744141 0.210839,-0.223242 0.545703,-0.545703 0.248047,-0.248047 0.272851,-0.620117 0.03721,-0.37207 0.03721,-0.694531 v -4.328418 q 0,-0.248047 -0.03721,-0.508496 -0.03721,-0.272852 -0.21084,-0.458887 -0.04961,-0.06201 -0.124023,-0.09922 -0.06201,-0.03721 -0.111621,-0.08682 -0.272852,-0.285254 -0.508496,-0.458887 -0.223242,-0.186035 -0.223242,-0.644922 0,-0.496093 0.310058,-0.768945 0.310059,-0.272851 0.731738,-0.434082 l 2.678907,-1.079004 q 0.471289,-0.186035 0.979785,-0.334863 0.508496,-0.161231 1.016992,-0.161231 z m -1.860352,-0.04961 q -0.79375,0 -1.599902,-0.235644 -0.806152,-0.235645 -1.351855,-0.781348 -0.533301,-0.558106 -0.533301,-1.500684 0,-0.9425778 0.545703,-1.4758785 0.545703,-0.5457031 1.351855,-0.7689453 0.806153,-0.2232422 1.5875,-0.2232422 0.781348,0 1.5875,0.2232422 0.818555,0.2232422 1.364258,0.7689453 0.558106,0.5333007 0.558106,1.4758785 0,0.954981 -0.545703,1.513086 -0.545704,0.545703 -1.364258,0.781348 -0.806153,0.223242 -1.599903,0.223242 z"
         id="text15"
         style="font-weight:bold;font-size:25.4px;font-family:Caprasimo;-inkscape-font-specification:'Caprasimo Bold';stroke-width:0.264583"
         inkscape:label="i"
         aria-label="i" />
      <path
         d="m 52.503217,26.272317 q 0,0.520898 -0.260449,0.979785 -0.260449,0.458887 -0.545703,0.868164 l -5.146973,7.366992 q 0.818555,-0.04961 1.42627,-0.248047 0.620117,-0.198437 1.153418,-0.694531 0.545703,-0.508496 1.128613,-1.463476 0.248047,-0.42168 0.483691,-0.731739 0.248047,-0.310058 0.806153,-0.310058 0.396875,0 0.781347,0.297656 0.384473,0.297656 0.384473,0.731738 0,0.08682 -0.0124,0.136426 l -0.731739,3.869531 q -0.186035,0.979785 -1.128613,0.979785 -0.533301,0 -1.041797,-0.198437 -0.508496,-0.186035 -1.054199,-0.186035 h -6.436816 q -0.483692,0 -0.979785,-0.124024 -0.483692,-0.124023 -0.818555,-0.434082 -0.322461,-0.322461 -0.322461,-0.917773 0,-0.446485 0.148828,-0.880567 0.161231,-0.434082 0.409277,-0.79375 l 5.233789,-7.416601 q -0.992187,0.02481 -1.74873,0.396875 -0.744141,0.37207 -1.500684,1.562695 -0.260449,0.409278 -0.5333,0.731738 -0.26045,0.322461 -0.806153,0.322461 -0.409277,0 -0.79375,-0.297656 -0.37207,-0.310058 -0.37207,-0.74414 0,-0.09922 0.0124,-0.148829 l 0.682129,-3.373437 q 0.198438,-0.979785 1.128614,-0.979785 0.545703,0 1.054199,0.198437 0.508496,0.198438 1.041797,0.198438 h 6.573242 q 0.657324,0 1.215429,0.260449 0.570508,0.248047 0.570508,1.041797 z"
         id="text16"
         style="font-weight:bold;font-size:25.4px;font-family:Caprasimo;-inkscape-font-specification:'Caprasimo Bold';stroke-width:0.264583"
         inkscape:label="z"
         transform="rotate(-15.454299)"
         aria-label="z" />
      <path
         d="m 66.260713,14.445726 q 0.508496,0 0.768945,0.359668 0.272852,0.347265 0.272852,0.818554 v 1.252637 q 0.967383,-0.917773 2.133203,-1.674316 1.178223,-0.756543 2.294434,-0.756543 1.32705,0 2.1208,0.768945 0.79375,0.768945 1.103809,1.872754 0.657324,-0.644922 1.413867,-1.252637 0.756543,-0.607715 1.575098,-0.992187 0.818554,-0.396875 1.661914,-0.396875 1.178222,0 1.934765,0.620117 0.768946,0.607715 1.128614,1.575098 0.37207,0.95498 0.37207,2.009179 v 5.159375 q 0,0.285254 0.03721,0.719336 0.03721,0.42168 0.272852,0.620117 v 0.0124 q 0.272851,0.285254 0.483691,0.558105 0.21084,0.260449 0.21084,0.694531 0,0.545703 -0.334864,0.84336 -0.334863,0.285254 -0.868164,0.285254 h -5.097363 q -0.508496,0 -0.79375,-0.310059 -0.285254,-0.322461 -0.285254,-0.818555 0,-0.458886 0.21084,-0.706933 0.223242,-0.248047 0.434082,-0.545703 0.21084,-0.310059 0.21084,-0.892969 v -4.278809 q 0,-0.347265 -0.07441,-0.731738 -0.07441,-0.396875 -0.297656,-0.682129 -0.223242,-0.285254 -0.669727,-0.285254 -0.409277,0 -0.731738,0.223243 -0.310059,0.223242 -0.58291,0.496093 v 5.146973 q 0,0.657324 0.21084,0.979785 0.210839,0.322461 0.421679,0.570508 0.21084,0.248047 0.21084,0.706933 0,0.508496 -0.285254,0.818555 -0.272851,0.310059 -0.79375,0.310059 h -5.060156 q -0.520898,0 -0.79375,-0.310059 -0.272851,-0.322461 -0.272851,-0.818555 0,-0.458886 0.210839,-0.706933 0.21084,-0.260449 0.42168,-0.558106 0.21084,-0.297656 0.21084,-0.880566 v -4.278809 q 0,-0.347265 -0.07441,-0.731738 -0.07441,-0.396875 -0.297656,-0.682129 -0.223243,-0.285254 -0.669727,-0.285254 -0.396875,0 -0.719336,0.223243 -0.322461,0.210839 -0.58291,0.496093 v 5.146973 q 0,0.669726 0.21084,0.992187 0.21084,0.322461 0.421679,0.570508 0.21084,0.235645 0.21084,0.694531 0,0.496094 -0.272851,0.818555 -0.272852,0.310059 -0.79375,0.310059 h -5.097363 q -0.533301,0 -0.868164,-0.285254 -0.334864,-0.297657 -0.334864,-0.84336 0,-0.545703 0.248047,-0.806152 0.260449,-0.260449 0.508496,-0.558105 0.248047,-0.310059 0.248047,-0.967383 v -4.60127 q 0,-0.558105 -0.173633,-0.830957 -0.173633,-0.285254 -0.396875,-0.446484 -0.223242,-0.161231 -0.396875,-0.359668 -0.173633,-0.21084 -0.173633,-0.620117 0,-0.508496 0.297657,-0.768946 0.310058,-0.260449 0.731738,-0.434082 L 64.28874,14.94182 q 0.47129,-0.198438 0.954981,-0.347266 0.496094,-0.148828 1.016992,-0.148828 z"
         id="text17"
         style="font-weight:bold;font-size:25.4px;font-family:Caprasimo;-inkscape-font-specification:'Caprasimo Bold';stroke-width:0.264583"
         inkscape:label="m"
         aria-label="m" />
      <path
         d="m 90.834843,14.086057 q 2.046387,0 3.584278,0.843359 1.550293,0.84336 2.418457,2.368848 0.868164,1.525488 0.868164,3.584277 0,2.021582 -0.954981,3.522266 -0.95498,1.488281 -2.567285,2.319238 -1.599902,0.818555 -3.559473,0.818555 -2.058789,0 -3.609081,-0.843359 -1.550293,-0.855762 -2.418457,-2.393653 -0.855762,-1.550293 -0.855762,-3.609082 0,-2.009179 0.967383,-3.497461 0.967382,-1.488281 2.579687,-2.294433 1.612305,-0.818555 3.54707,-0.818555 z m 0.706934,10.715625 q 0.310059,0 0.434082,-0.322461 0.136426,-0.322461 0.173633,-0.706934 0.03721,-0.396875 0.03721,-0.607714 0,-0.706934 -0.111621,-1.401465 -0.111621,-0.706934 -0.285254,-1.389063 -0.06201,-0.272851 -0.235645,-0.843359 -0.173633,-0.58291 -0.421679,-1.21543 -0.248047,-0.632519 -0.545704,-1.079004 -0.297656,-0.446484 -0.632519,-0.446484 -0.285254,0 -0.42168,0.322461 -0.124023,0.322461 -0.16123,0.719336 -0.03721,0.384473 -0.03721,0.58291 0,0.334863 0.09922,1.079004 0.09922,0.731738 0.285253,1.637109 0.198438,0.905371 0.471289,1.748731 0.272852,0.830957 0.607715,1.37666 0.347266,0.545703 0.744141,0.545703 z"
         id="text18"
         style="font-weight:bold;font-size:25.4px;font-family:Caprasimo;-inkscape-font-specification:'Caprasimo Bold';stroke-width:0.264583"
         inkscape:label="o"
         aria-label="o" />
      <path
         d="m 103.44165,-17.745547 q 1.67845,0 2.74919,0.781347 1.0852,0.781347 1.0852,2.59002 0,0.506429 -0.0868,1.012857 -0.0723,0.506429 -0.20257,0.998388 l -1.80867,7.0321209 q -0.17363,0.6945305 -0.56431,1.1864896 -0.3762,0.4774897 -1.17202,0.4774897 -0.79581,0 -1.18649,-0.4919591 -0.3762,-0.4919591 -0.54983,-1.1720202 l -1.823145,-7.0321209 q -0.130225,-0.491959 -0.217041,-0.998388 -0.07235,-0.506428 -0.07235,-1.012857 0,-1.823142 1.085203,-2.59002 1.0852,-0.781347 2.76365,-0.781347 z m -0.10128,22.0658128 q -0.99839,0 -1.7508,-0.5353673 -0.75241,-0.5353672 -1.18649,-1.389061 -0.41961,-0.8536937 -0.41961,-1.79420371 0,-0.95497942 0.41961,-1.79420379 0.43408,-0.8536937 1.18649,-1.3745916 0.75241,-0.5353672 1.7508,-0.5353672 1.01285,0 1.76526,0.5353672 0.76688,0.5208979 1.20096,1.3601222 0.43408,0.83922438 0.43408,1.80867319 0,0.95497941 -0.43408,1.80867311 -0.43408,0.8392244 -1.20096,1.3745916 -0.76687,0.5353673 -1.76526,0.5353673 z"
         id="text19"
         style="font-weight:bold;font-size:29.6333px;font-family:Caprasimo;-inkscape-font-specification:'Caprasimo Bold';stroke-width:0.264583"
         inkscape:label="!"
         transform="rotate(15)"
         aria-label="!" />
    </g>
    <g
       id="g24"
       inkscape:label="Games"
       transform="translate(-2.5539823,16.769861)"
       style="display:inline;fill:#c0c0c0;fill-opacity:1">
      <path
         d="m 68.371255,26.825231 q 0,0.545703 -0.248047,0.830957 -0.248047,0.272851 -0.570507,0.446484 -0.322461,0.173633 -0.570508,0.396875 -0.248047,0.21084 -0.248047,0.632519 v 4.539258 q 0,1.389063 -1.364258,1.389063 -0.508496,0 -0.892969,-0.310059 -0.37207,-0.297656 -0.719336,-0.595312 -0.334863,-0.310059 -0.719336,-0.310059 -0.359667,0 -0.781347,0.186035 -0.409278,0.186035 -0.744141,0.334863 -0.719336,0.334864 -1.451074,0.508496 -0.731738,0.173633 -1.537891,0.173633 -2.790527,0 -4.737695,-1.128613 -1.947168,-1.141016 -2.96416,-3.175 -1.016992,-2.046387 -1.016992,-4.774902 0,-1.934766 0.719336,-3.584277 0.719336,-1.661915 1.996777,-2.889747 1.277442,-1.227832 2.951758,-1.90996 1.686719,-0.694532 3.59668,-0.694532 0.731738,0 1.451074,0.09922 0.719336,0.08682 1.413867,0.297656 0.359668,0.09922 0.694531,0.198438 0.347266,0.09922 0.719336,0.09922 0.322461,0 0.58291,-0.161231 0.272852,-0.173633 0.533301,-0.334863 0.272852,-0.161231 0.595312,-0.161231 0.63252,0 0.818555,0.396875 0.198438,0.396875 0.347266,0.892969 0.111621,0.359668 0.297656,0.930176 0.198438,0.570508 0.396875,1.21543 0.21084,0.632519 0.347266,1.190625 0.136425,0.558105 0.136425,0.880566 0,0.595312 -0.471289,0.892969 -0.471289,0.285254 -1.004589,0.285254 -0.545704,0 -0.818555,-0.272852 -0.272852,-0.272852 -0.545703,-0.694531 -0.620117,-0.942578 -1.203028,-1.661914 -0.58291,-0.731739 -1.37666,-1.141016 -0.781347,-0.409277 -2.021582,-0.409277 -1.190625,0 -1.971972,0.533301 -0.781348,0.520898 -1.240235,1.389062 -0.446484,0.855762 -0.644922,1.872754 -0.186035,1.00459 -0.186035,1.984375 0,0.719336 0.08682,1.463476 0.09922,0.731739 0.297656,1.42627 0.272851,0.930176 0.818555,1.79834 0.558105,0.855761 1.37666,1.401465 0.818554,0.545703 1.872754,0.545703 0.446484,0 0.706933,-0.148828 0.260449,-0.161231 0.260449,-0.657325 v -1.909961 q 0,-0.322461 -0.124023,-0.434082 -0.124023,-0.111621 -0.37207,-0.260449 -0.322461,-0.198437 -0.706934,-0.384472 -0.37207,-0.198438 -0.632519,-0.47129 -0.26045,-0.285253 -0.26045,-0.74414 0,-0.694531 0.434082,-0.979785 0.434082,-0.297657 1.066602,-0.297657 h 6.13916 q 0.632519,0 1.054199,0.285254 0.434082,0.285254 0.434082,0.979786 z"
         id="text20"
         style="font-weight:bold;font-size:25.4px;font-family:Caprasimo;-inkscape-font-specification:'Caprasimo Bold';stroke-width:0.264583"
         inkscape:label="G"
         aria-label="G" />
      <path
         d="m 68.234802,32.083824 q 0,-1.141015 0.533301,-1.897558 0.533301,-0.768946 1.389062,-1.227832 0.868165,-0.471289 1.872754,-0.669727 1.00459,-0.198437 1.934766,-0.198437 0.272852,0 0.558105,0.0124 0.285254,0 0.558106,0.04961 v -3.224609 q 0,-0.310059 -0.136426,-0.719336 -0.124023,-0.409277 -0.520898,-0.409277 -0.384473,0 -0.483692,0.322461 -0.08682,0.310058 -0.08682,0.595312 0,0.124024 0,0.260449 0.0124,0.124024 0.0124,0.26045 0,1.277441 -0.880566,1.798339 -0.880567,0.508496 -2.00918,0.508496 -0.942578,0 -1.637109,-0.421679 -0.694531,-0.42168 -0.694531,-1.488281 0,-0.42168 0.16123,-0.818555 0.173633,-0.396875 0.434082,-0.706934 0.756543,-0.917773 1.897559,-1.401465 1.153418,-0.483691 2.418457,-0.657324 1.277441,-0.186035 2.393652,-0.186035 1.265039,0 2.319238,0.359668 1.054199,0.359668 1.686719,1.203027 0.632519,0.830957 0.632519,2.244825 v 5.71748 q 0,0.21084 0.09922,0.37207 0.09922,0.161231 0.334863,0.161231 0.186036,0 0.310059,-0.111621 0.136426,-0.124024 0.322461,-0.124024 0.359668,0 0.533301,0.248047 0.186035,0.248047 0.186035,0.58291 0,0.868164 -0.533301,1.500684 -0.520898,0.620117 -1.302246,0.942578 -0.781348,0.334863 -1.575098,0.334863 -0.930175,0 -1.885156,-0.409277 -0.942578,-0.409277 -1.302246,-1.277442 -0.632519,0.880567 -1.736328,1.289844 -1.091406,0.396875 -2.145605,0.396875 -0.967383,0 -1.810743,-0.359668 -0.830957,-0.37207 -1.339453,-1.091406 -0.508496,-0.719336 -0.508496,-1.761133 z m 5.593457,-1.091406 q 0,0.496094 0.235645,0.942578 0.235644,0.434082 0.806152,0.434082 0.111621,0 0.21084,-0.02481 v -2.567285 q -0.21084,-0.08682 -0.434082,-0.08682 -0.471289,0 -0.644922,0.471289 -0.173633,0.458887 -0.173633,0.830957 z"
         id="text21"
         style="font-weight:bold;font-size:25.4px;font-family:Caprasimo;-inkscape-font-specification:'Caprasimo Bold';stroke-width:0.264583"
         inkscape:label="a"
         aria-label="a" />
      <path
         d="m 87.855287,21.963512 q 0.508496,0 0.768945,0.359668 0.272852,0.347265 0.272852,0.818554 v 1.252637 q 0.967383,-0.917773 2.133203,-1.674316 1.178223,-0.756543 2.294434,-0.756543 1.32705,0 2.1208,0.768945 0.79375,0.768945 1.103809,1.872754 0.657324,-0.644922 1.413867,-1.252637 0.756543,-0.607715 1.575098,-0.992187 0.818555,-0.396875 1.661915,-0.396875 1.17822,0 1.93476,0.620117 0.76895,0.607715 1.12862,1.575098 0.37207,0.95498 0.37207,2.009179 v 5.159375 q 0,0.285254 0.0372,0.719336 0.0372,0.42168 0.27286,0.620117 v 0.0124 q 0.27285,0.285254 0.48369,0.558105 0.21084,0.260449 0.21084,0.694531 0,0.545704 -0.33487,0.84336 -0.33486,0.285254 -0.86816,0.285254 h -5.097363 q -0.508496,0 -0.79375,-0.310059 -0.285254,-0.322461 -0.285254,-0.818555 0,-0.458886 0.21084,-0.706933 0.223242,-0.248047 0.434082,-0.545703 0.21084,-0.310059 0.21084,-0.892969 v -4.278809 q 0,-0.347265 -0.07441,-0.731738 -0.07441,-0.396875 -0.297656,-0.682129 -0.223242,-0.285254 -0.669727,-0.285254 -0.409277,0 -0.731738,0.223243 -0.310059,0.223242 -0.58291,0.496093 v 5.146973 q 0,0.657324 0.21084,0.979785 0.210839,0.322461 0.421679,0.570508 0.21084,0.248047 0.21084,0.706933 0,0.508496 -0.285254,0.818555 -0.272851,0.310059 -0.79375,0.310059 h -5.060156 q -0.520898,0 -0.79375,-0.310059 -0.272851,-0.322461 -0.272851,-0.818555 0,-0.458886 0.210839,-0.706933 0.21084,-0.260449 0.42168,-0.558106 0.21084,-0.297656 0.21084,-0.880566 v -4.278809 q 0,-0.347265 -0.07441,-0.731738 -0.07441,-0.396875 -0.297656,-0.682129 -0.223243,-0.285254 -0.669727,-0.285254 -0.396875,0 -0.719336,0.223243 -0.322461,0.210839 -0.58291,0.496093 v 5.146973 q 0,0.669726 0.21084,0.992187 0.21084,0.322461 0.421679,0.570508 0.21084,0.235645 0.21084,0.694531 0,0.496094 -0.272851,0.818555 -0.272852,0.310059 -0.79375,0.310059 h -5.097363 q -0.533301,0 -0.868165,-0.285254 -0.334863,-0.297656 -0.334863,-0.84336 0,-0.545703 0.248047,-0.806152 0.260449,-0.260449 0.508496,-0.558105 0.248047,-0.310059 0.248047,-0.967383 v -4.60127 q 0,-0.558105 -0.173633,-0.830957 -0.173633,-0.285254 -0.396875,-0.446484 -0.223242,-0.161231 -0.396875,-0.359668 -0.173633,-0.21084 -0.173633,-0.620117 0,-0.508496 0.297657,-0.768945 0.310058,-0.26045 0.731738,-0.434083 l 2.616894,-1.079003 q 0.47129,-0.198438 0.954981,-0.347266 0.496094,-0.148828 1.016992,-0.148828 z"
         id="text22"
         style="font-weight:bold;font-size:25.4px;font-family:Caprasimo;-inkscape-font-specification:'Caprasimo Bold';stroke-width:0.264583"
         inkscape:label="m"
         aria-label="m" />
      <path
         d="m 117.69008,26.614391 q 0,1.103808 -0.65732,1.674316 -0.64493,0.570508 -1.71153,0.570508 h -4.99814 q 0.28525,1.066601 1.01699,1.79834 0.73174,0.719336 2.1084,0.719336 0.5457,0 1.079,-0.223243 0.54571,-0.235644 1.01699,-0.545703 0.4837,-0.310058 0.84336,-0.5333 0.35967,-0.235645 0.54571,-0.235645 0.35967,0 0.5209,0.260449 0.16123,0.248047 0.16123,0.570508 0,1.128613 -0.5333,1.984375 -0.5209,0.843359 -1.38907,1.401465 -0.85576,0.558105 -1.88515,0.830957 -1.017,0.285254 -2.00918,0.285254 -1.94717,0 -3.43545,-0.806153 -1.48828,-0.806152 -2.33164,-2.257226 -0.83096,-1.463477 -0.83096,-3.435449 0,-2.108399 0.80615,-3.671094 0.81856,-1.562695 2.34405,-2.418457 1.52548,-0.868164 3.65869,-0.868164 1.47588,0 2.76572,0.558105 1.30225,0.558106 2.1084,1.649512 0.80615,1.091406 0.80615,2.691309 z m -7.59023,0.334863 q 0,0.136426 0,0.272852 h 1.28984 q 0.47129,0 0.64492,-0.21084 0.17363,-0.223243 0.17363,-0.669727 0,-0.297656 -0.0744,-0.781348 -0.0744,-0.483691 -0.29766,-0.868164 -0.21084,-0.384472 -0.62011,-0.384472 -0.37207,0 -0.59532,0.310058 -0.22324,0.297657 -0.33486,0.756543 -0.11162,0.446485 -0.14883,0.880567 -0.0372,0.434082 -0.0372,0.694531 z"
         id="text23"
         style="font-weight:bold;font-size:25.4px;font-family:Caprasimo;-inkscape-font-specification:'Caprasimo Bold';stroke-width:0.264583"
         inkscape:label="e"
         aria-label="e" />
      <path
         d="m 124.00807,23.712242 q -0.42168,0 -0.75654,0.186035 -0.33486,0.186036 -0.33486,0.669727 0,0.396875 0.18603,0.607715 0.18604,0.21084 0.5333,0.359668 0.37207,0.16123 0.78135,0.235644 0.40928,0.07441 0.79375,0.161231 1.14101,0.248047 2.1332,0.843359 0.99219,0.58291 1.5999,1.513086 0.62012,0.917773 0.62012,2.182813 0,1.699121 -0.76894,2.70371 -0.76895,1.00459 -2.04639,1.438672 -1.26504,0.434082 -2.77813,0.434082 -0.38447,0 -1.0666,-0.09922 -0.66972,-0.09922 -0.99218,-0.272852 h -0.0124 q -0.12402,-0.06201 -0.40927,-0.136426 -0.28526,-0.07441 -0.42168,-0.07441 -0.38448,0 -0.65733,0.297656 -0.27285,0.310059 -0.66972,0.310059 -0.53331,0 -0.84336,-0.347266 -0.29766,-0.347265 -0.45889,-0.818554 -0.14883,-0.483692 -0.27285,-0.892969 -0.0868,-0.347266 -0.19844,-0.682129 -0.11162,-0.347266 -0.11162,-0.706934 0,-0.644921 0.34727,-1.041796 0.34726,-0.396875 1.00458,-0.396875 0.64493,0 1.06661,0.285254 0.42168,0.272851 0.74414,0.682128 0.33486,0.409278 0.66972,0.830957 0.34727,0.409278 0.83096,0.694532 0.48369,0.272851 1.21543,0.272851 0.5085,0 0.76895,-0.297656 0.26044,-0.310059 0.26044,-0.79375 0,-0.694531 -0.37207,-0.892969 -0.37207,-0.198437 -0.95498,-0.310058 -1.0666,-0.21084 -2.03398,-0.496094 -0.95498,-0.285254 -1.69912,-0.781348 -0.73174,-0.496093 -1.16582,-1.314648 -0.42168,-0.818555 -0.42168,-2.108399 0,-1.525488 0.83096,-2.480468 0.83095,-0.967383 2.10839,-1.42627 1.28985,-0.458886 2.6169,-0.458886 0.50849,0 0.99219,0.03721 0.49609,0.03721 0.97978,0.198437 0.062,0.0124 0.28526,0.09922 0.23564,0.08682 0.45888,0.173633 0.22324,0.07441 0.22324,0.07441 0.40928,0 0.69454,-0.285254 0.29765,-0.297656 0.70693,-0.297656 0.5209,0 0.76894,0.409277 0.24805,0.396875 0.34727,0.930176 0.11162,0.5333 0.17363,0.905371 0.0496,0.285254 0.0992,0.58291 0.0496,0.285254 0.0496,0.570508 0,0.496093 -0.23564,0.942578 -0.22325,0.434082 -0.80616,0.434082 -0.58291,0 -1.02939,-0.396875 -0.44649,-0.409278 -0.89297,-0.930176 -0.44648,-0.520898 -1.02939,-0.917773 -0.58291,-0.409278 -1.45108,-0.409278 z"
         id="text24"
         style="font-weight:bold;font-size:25.4px;font-family:Caprasimo;-inkscape-font-specification:'Caprasimo Bold';stroke-width:0.264583"
         inkscape:label="s"
         aria-label="s" />
    </g>
  </g>
</svg>
