<?xml version="1.0" encoding="UTF-8" standalone="no"?>
<!-- Created with Inkscape (http://www.inkscape.org/) -->

<svg
   width="255.99998"
   height="255.99998"
   viewBox="0 0 67.733328 67.733328"
   version="1.1"
   id="svg1"
   xml:space="preserve"
   xmlns="http://www.w3.org/2000/svg"
   xmlns:svg="http://www.w3.org/2000/svg"><defs
     id="defs1" /><g
     id="layer1"
     transform="translate(-270.93332)"><g
       id="g49"
       transform="matrix(0.48265709,0,0,0.48265709,172.63528,-97.729419)"
       style="stroke-width:0.749911;stroke-dasharray:none"><ellipse
         style="display:none;fill:#959595;fill-opacity:1;stroke:none;stroke-width:0.749911;stroke-linecap:round;stroke-dasharray:none;stroke-opacity:1;paint-order:stroke fill markers"
         id="ellipse270"
         cx="273.82739"
         cy="272.64923"
         rx="70.167137"
         ry="70.16713" /><path
         id="path40"
         style="fill:#ffffff;fill-opacity:1;stroke:#404040;stroke-width:5.48181;stroke-linecap:round;stroke-dasharray:none;stroke-opacity:1"
         d="m 260.89347,234.83174 c -14.65844,-0.2182 12.92433,37.87567 12.93409,37.88916 0,0 -0.003,0.005 -0.003,0.005 -0.009,-0.007 -53.52462,-38.76554 -33.34009,-0.002 -20.18769,38.75191 33.30594,0.0288 33.33647,0.007 -0.0505,0.0701 -38.55368,53.50687 0.11886,33.33026 38.80966,20.17835 -0.0591,-33.2709 -0.10336,-33.33181 0.0395,0.0286 53.51731,38.74587 33.33492,-0.005 20.1871,-38.75959 -33.3245,-0.0121 -33.33905,-0.002 l -0.001,-0.002 c 0.0116,-0.016 38.75699,-53.52589 -0.002,-33.33905 -6.05701,-3.15467 -10.22116,-4.5097 -12.93616,-4.55011 z" /><path
         id="path49"
         style="fill:#ffffff;fill-opacity:1;stroke:#ffffff;stroke-width:1.09636;stroke-linecap:round;stroke-dasharray:none;stroke-opacity:1"
         d="m 260.90739,234.80534 c -14.64157,-0.21795 12.90944,37.83205 12.91919,37.84555 0,0 -0.002,0.004 -0.002,0.004 -0.008,-0.006 -53.46298,-38.7209 -33.3017,-0.002 -20.16444,38.70729 33.26759,0.0289 33.29808,0.006 -0.0504,0.07 -38.50928,53.44527 0.11873,33.29188 38.76497,20.15512 -0.0589,-33.23259 -0.10322,-33.29343 0.0395,0.0287 53.45569,38.70126 33.29653,-0.004 20.16387,-38.71498 -33.28613,-0.0121 -33.30065,-0.001 l -0.001,-10e-4 c 0.0115,-0.016 38.71236,-53.46426 -0.002,-33.30066 -6.05004,-3.15104 -10.2094,-4.50451 -12.92127,-4.54487 z" /></g></g></svg>
