<?xml version="1.0" encoding="UTF-8" standalone="no"?>
<!-- Created with Inkscape (http://www.inkscape.org/) -->

<svg
   width="255"
   height="255"
   viewBox="0 0 67.468749 67.468749"
   version="1.1"
   id="svg1"
   xml:space="preserve"
   xmlns:xlink="http://www.w3.org/1999/xlink"
   xmlns="http://www.w3.org/2000/svg"
   xmlns:svg="http://www.w3.org/2000/svg"><defs
     id="defs1"><linearGradient
       id="linearGradient1795"><stop
         style="stop-color:#ffffff;stop-opacity:0.19922674;"
         offset="0.71389276"
         id="stop1791" /><stop
         style="stop-color:#bfbfbf;stop-opacity:0.61963987;"
         offset="1"
         id="stop1793" /></linearGradient><filter
       style="color-interpolation-filters:sRGB"
       id="filter7406"
       x="-0.16740142"
       y="-0.23113194"
       width="1.3348028"
       height="1.4622639"><feGaussianBlur
         stdDeviation="3.5119397"
         id="feGaussianBlur7408" /></filter><filter
       style="color-interpolation-filters:sRGB"
       id="filter7492"
       x="-0.16130387"
       y="-0.23712489"
       width="1.3226077"
       height="1.4742498"><feGaussianBlur
         stdDeviation="3.3615884"
         id="feGaussianBlur7490" /></filter><radialGradient
       xlink:href="#linearGradient1795"
       id="radialGradient11"
       gradientUnits="userSpaceOnUse"
       gradientTransform="matrix(-0.03100711,1.2277974,-1.16274,-0.02954576,67.354813,1.5397649)"
       cx="27.758467"
       cy="25.495255"
       fx="27.758467"
       fy="25.495255"
       r="33.593407" /></defs><g
     id="layer1"
     transform="translate(-0.13229166,-0.13229166)"><g
       id="g2"
       transform="matrix(1.9910765,0,0,1.9932951,0.15249747,0.11214033)"
       style="display:inline"><ellipse
         style="display:inline;fill:#ffffff;fill-opacity:1;stroke-width:3.18241;stroke-linecap:round;paint-order:stroke fill markers"
         id="circle928"
         cx="35.879814"
         cy="35.860806"
         rx="40.030334"
         ry="40.255131"
         transform="matrix(0.42324855,0,0,0.42041654,1.7465541,1.8575581)" /><g
         id="layer2"
         style="display:inline"
         transform="matrix(0.42324855,0,0,0.42041654,1.7465541,1.8575581)"><path
           style="mix-blend-mode:normal;fill:#ffffff;fill-opacity:0.602883;stroke:none;stroke-width:0.264583;stroke-linejoin:bevel;paint-order:stroke fill markers;filter:url(#filter7492)"
           d="M 3.9349386,28.67036 C 4.0768717,24.644356 5.1044047,21.454195 6.8427682,18.374906 8.5811317,15.295618 11.030197,12.327457 14.691156,9.6036381 18.352115,6.8798195 23.224501,4.4006313 28.766401,3.8142518 c 5.5419,-0.5863795 11.752461,0.7200021 16.721615,2.7888622 4.969154,2.06886 8.696329,4.899796 8.432311,5.541954 -0.264018,0.642158 -4.519217,-0.904427 -8.100309,-1.532937 -3.581093,-0.6285092 -6.487565,-0.338728 -9.180187,0.31119 -2.692622,0.649917 -5.170974,1.659925 -8.498793,3.020433 -3.327819,1.360507 -7.504703,3.07135 -11.253441,5.580973 -3.748738,2.509623 -7.0687439,5.81767 -8.9319521,9.766767 -1.8632081,3.949098 -2.2693743,8.538531 -2.8442295,8.40251 C 4.5365603,37.557983 3.7930055,32.696364 3.9349386,28.67036 Z"
           id="path6808"
           transform="matrix(1.2102557,0,0,1.6050979,0.87267101,2.6589991)" /><path
           style="mix-blend-mode:normal;fill:#ffffff;fill-opacity:0.602883;stroke:none;stroke-width:0.264583;stroke-linejoin:bevel;paint-order:stroke fill markers;filter:url(#filter7406)"
           d="m 22.751343,58.503381 c 0.305992,-4.70239 1.333524,-7.892551 3.071888,-10.97184 1.738364,-3.079289 4.18743,-6.047449 7.848389,-8.771268 3.660958,-2.723818 8.533344,-5.203006 14.227316,-5.678915 5.693972,-0.475909 12.204048,1.050312 17.30221,3.865842 5.098162,2.81553 8.77236,6.913927 7.57288,8.020689 -1.19948,1.106762 -7.274247,-0.781395 -11.560065,-1.917776 -4.285819,-1.136382 -6.783261,-1.521169 -9.207319,-1.424144 -2.424059,0.09702 -4.773455,0.675595 -7.692035,2.155715 -2.918579,1.48012 -6.404184,3.860699 -9.237617,6.261002 -2.833433,2.400303 -5.013186,4.819054 -6.871513,9.086556 -1.858326,4.267502 -3.393921,10.381061 -4.369513,10.332607 -0.975593,-0.04846 -1.390612,-6.256078 -1.084621,-10.958468 z"
           id="path7446"
           transform="matrix(-1.0882031,0.15663458,-0.12987556,-1.312412,94.579031,95.602561)" /></g><ellipse
         style="display:inline;mix-blend-mode:normal;fill:url(#radialGradient11);fill-opacity:1;stroke-width:3.18241;stroke-linecap:round;paint-order:stroke fill markers"
         id="ellipse1057"
         cx="35.879814"
         cy="35.860806"
         rx="40.030334"
         ry="40.255131"
         transform="matrix(0.42324855,0,0,0.42041654,1.7465541,1.8575581)" /></g></g></svg>
