<?xml version="1.0" encoding="UTF-8" standalone="no"?>
<!-- Created with Inkscape (http://www.inkscape.org/) -->

<svg
   width="152.88643"
   height="145.47205"
   viewBox="0 0 40.4512 38.489478"
   version="1.1"
   id="svg1"
   xml:space="preserve"
   xmlns="http://www.w3.org/2000/svg"
   xmlns:svg="http://www.w3.org/2000/svg"><defs
     id="defs1"><filter
       style="color-interpolation-filters:sRGB"
       id="filter7406"
       x="-0.16740142"
       y="-0.23113194"
       width="1.3348028"
       height="1.4622639"><feGaussianBlur
         stdDeviation="3.5119397"
         id="feGaussianBlur7408" /></filter><filter
       style="color-interpolation-filters:sRGB"
       id="filter7492"
       x="-0.16130387"
       y="-0.23712489"
       width="1.3226077"
       height="1.4742498"><feGaussianBlur
         stdDeviation="3.3615884"
         id="feGaussianBlur7490" /></filter></defs><g
     id="layer1"
     transform="translate(-13.641063,-80.369439)"><g
       id="g142"
       transform="translate(4.4458777e-7,67.597026)"><g
         id="g102"
         transform="matrix(1.9988845,0,0,2.0011118,203.22028,0.11607356)"
         style="display:inline"><ellipse
           style="display:inline;fill:#191919;fill-opacity:1;stroke-width:3.18241;stroke-linecap:round;paint-order:stroke fill markers"
           id="ellipse100"
           cx="35.879814"
           cy="35.860806"
           rx="40.030334"
           ry="40.255131"
           transform="matrix(0.42324855,0,0,0.42041654,1.7465541,1.8575581)" /><g
           id="g101"
           style="display:inline"
           transform="matrix(0.42324855,0,0,0.42041654,1.7465541,1.8575581)"><path
             style="mix-blend-mode:normal;fill:#000000;fill-opacity:0.936031;stroke:none;stroke-width:0.264583;stroke-linejoin:bevel;paint-order:stroke fill markers;filter:url(#filter7492)"
             d="M 3.9349386,28.67036 C 4.0768717,24.644356 5.1044047,21.454195 6.8427682,18.374906 8.5811317,15.295618 11.030197,12.327457 14.691156,9.6036381 18.352115,6.8798195 23.224501,4.4006313 28.766401,3.8142518 c 5.5419,-0.5863795 11.752461,0.7200021 16.721615,2.7888622 4.969154,2.06886 8.696329,4.899796 8.432311,5.541954 -0.264018,0.642158 -4.519217,-0.904427 -8.100309,-1.532937 -3.581093,-0.6285092 -6.487565,-0.338728 -9.180187,0.31119 -2.692622,0.649917 -5.170974,1.659925 -8.498793,3.020433 -3.327819,1.360507 -7.504703,3.07135 -11.253441,5.580973 -3.748738,2.509623 -7.0687439,5.81767 -8.9319521,9.766767 -1.8632081,3.949098 -2.2693743,8.538531 -2.8442295,8.40251 C 4.5365603,37.557983 3.7930055,32.696364 3.9349386,28.67036 Z"
             id="path100"
             transform="matrix(1.2102557,0,0,1.6050979,0.87267101,2.6589991)" /><path
             style="mix-blend-mode:normal;fill:#000000;fill-opacity:0.936031;stroke:none;stroke-width:0.264583;stroke-linejoin:bevel;paint-order:stroke fill markers;filter:url(#filter7406)"
             d="m 22.751343,58.503381 c 0.305992,-4.70239 1.333524,-7.892551 3.071888,-10.97184 1.738364,-3.079289 4.18743,-6.047449 7.848389,-8.771268 3.660958,-2.723818 8.533344,-5.203006 14.227316,-5.678915 5.693972,-0.475909 12.204048,1.050312 17.30221,3.865842 5.098162,2.81553 8.77236,6.913927 7.57288,8.020689 -1.19948,1.106762 -7.274247,-0.781395 -11.560065,-1.917776 -4.285819,-1.136382 -6.783261,-1.521169 -9.207319,-1.424144 -2.424059,0.09702 -4.773455,0.675595 -7.692035,2.155715 -2.918579,1.48012 -6.404184,3.860699 -9.237617,6.261002 -2.833433,2.400303 -5.013186,4.819054 -6.871513,9.086556 -1.858326,4.267502 -3.393921,10.381061 -4.369513,10.332607 -0.975593,-0.04846 -1.390612,-6.256078 -1.084621,-10.958468 z"
             id="path101"
             transform="matrix(-1.0882031,0.15663458,-0.12987556,-1.312412,94.579031,95.602561)" /></g><ellipse
           style="display:inline;mix-blend-mode:normal;fill:#191919;fill-opacity:1;stroke:none;stroke-width:3.18241;stroke-linecap:round;paint-order:stroke fill markers"
           id="ellipse101"
           cx="35.879814"
           cy="35.860806"
           rx="40.030334"
           ry="40.255131"
           transform="matrix(0.42324855,0,0,0.42041654,1.7465541,1.8575581)" /><path
           fill="#000000"
           d="m 378.82437,84.531568 c -3.74457,-1.380174 -7.83911,-1.490647 -11.65268,-0.314397 -2.63772,0.813586 -5.03976,2.211521 -7.0368,4.071559 l -1.91077,-1.910792 c -1.43246,-1.432451 -3.88172,-0.417936 -3.88172,1.607863 v 9.066501 h 9.06649 c 2.02581,0 3.04031,-2.449266 1.60787,-3.881734 l -1.66342,-1.663414 c 1.47385,-1.340516 3.2325,-2.350151 5.15875,-2.944286 2.86016,-0.882194 5.93107,-0.799335 8.73945,0.2358 2.80844,1.035152 5.1985,2.965109 6.80203,5.492508 1.60352,2.527398 2.33115,5.511951 2.07126,8.493764 -0.25991,2.9818 -1.49325,5.79534 -3.50994,8.00712 -2.01646,2.21179 -4.70461,3.69912 -7.64974,4.23257 -2.9452,0.53344 -5.98411,0.0836 -8.64844,-1.28019 -2.66436,-1.36363 -4.80629,-3.56586 -6.0957,-6.26698 -0.541,-1.1333 -1.89831,-1.61353 -3.03163,-1.07258 -1.1333,0.54094 -1.61346,1.89844 -1.07247,3.03173 1.71924,3.60135 4.57512,6.53758 8.12758,8.35622 3.55247,1.8184 7.60436,2.41802 11.53126,1.70676 3.92701,-0.7115 7.51084,-2.69431 10.19968,-5.6435 2.68884,-2.94897 4.3333,-6.70039 4.68007,-10.67616 0.34653,-3.975758 -0.62395,-7.955179 -2.76184,-11.325038 -2.13788,-3.36986 -5.3247,-5.943141 -9.06929,-7.323324 z"
           id="path1-8"
           style="fill:#ffffff;fill-opacity:1;stroke-width:2.27386"
           transform="matrix(0.50027903,0,0,0.4997222,-169.43797,-33.837739)" /></g><g
         id="g90"
         transform="matrix(1.9988845,0,0,2.0011118,203.22028,67.849403)"
         style="display:inline"><ellipse
           style="display:inline;fill:#191919;fill-opacity:1;stroke-width:3.18241;stroke-linecap:round;paint-order:stroke fill markers"
           id="ellipse88"
           cx="35.879814"
           cy="35.860806"
           rx="40.030334"
           ry="40.255131"
           transform="matrix(0.42324855,0,0,0.42041654,1.7465541,1.8575581)" /><g
           id="g89"
           style="display:inline"
           transform="matrix(0.42324855,0,0,0.42041654,1.7465541,1.8575581)"><path
             style="mix-blend-mode:normal;fill:#000000;fill-opacity:0.936031;stroke:none;stroke-width:0.264583;stroke-linejoin:bevel;paint-order:stroke fill markers;filter:url(#filter7492)"
             d="M 3.9349386,28.67036 C 4.0768717,24.644356 5.1044047,21.454195 6.8427682,18.374906 8.5811317,15.295618 11.030197,12.327457 14.691156,9.6036381 18.352115,6.8798195 23.224501,4.4006313 28.766401,3.8142518 c 5.5419,-0.5863795 11.752461,0.7200021 16.721615,2.7888622 4.969154,2.06886 8.696329,4.899796 8.432311,5.541954 -0.264018,0.642158 -4.519217,-0.904427 -8.100309,-1.532937 -3.581093,-0.6285092 -6.487565,-0.338728 -9.180187,0.31119 -2.692622,0.649917 -5.170974,1.659925 -8.498793,3.020433 -3.327819,1.360507 -7.504703,3.07135 -11.253441,5.580973 -3.748738,2.509623 -7.0687439,5.81767 -8.9319521,9.766767 -1.8632081,3.949098 -2.2693743,8.538531 -2.8442295,8.40251 C 4.5365603,37.557983 3.7930055,32.696364 3.9349386,28.67036 Z"
             id="path88"
             transform="matrix(1.2102557,0,0,1.6050979,0.87267101,2.6589991)" /><path
             style="mix-blend-mode:normal;fill:#000000;fill-opacity:0.936031;stroke:none;stroke-width:0.264583;stroke-linejoin:bevel;paint-order:stroke fill markers;filter:url(#filter7406)"
             d="m 22.751343,58.503381 c 0.305992,-4.70239 1.333524,-7.892551 3.071888,-10.97184 1.738364,-3.079289 4.18743,-6.047449 7.848389,-8.771268 3.660958,-2.723818 8.533344,-5.203006 14.227316,-5.678915 5.693972,-0.475909 12.204048,1.050312 17.30221,3.865842 5.098162,2.81553 8.77236,6.913927 7.57288,8.020689 -1.19948,1.106762 -7.274247,-0.781395 -11.560065,-1.917776 -4.285819,-1.136382 -6.783261,-1.521169 -9.207319,-1.424144 -2.424059,0.09702 -4.773455,0.675595 -7.692035,2.155715 -2.918579,1.48012 -6.404184,3.860699 -9.237617,6.261002 -2.833433,2.400303 -5.013186,4.819054 -6.871513,9.086556 -1.858326,4.267502 -3.393921,10.381061 -4.369513,10.332607 -0.975593,-0.04846 -1.390612,-6.256078 -1.084621,-10.958468 z"
             id="path89"
             transform="matrix(-1.0882031,0.15663458,-0.12987556,-1.312412,94.579031,95.602561)" /></g><ellipse
           style="display:inline;mix-blend-mode:normal;fill:#191919;fill-opacity:1;stroke:none;stroke-width:3.18241;stroke-linecap:round;paint-order:stroke fill markers"
           id="ellipse89"
           cx="35.879814"
           cy="35.860806"
           rx="40.030334"
           ry="40.255131"
           transform="matrix(0.42324855,0,0,0.42041654,1.7465541,1.8575581)" /><path
           id="primary"
           d="M 25.770856,15.761777 17.578888,7.5789257 a 0.91021867,0.90920556 0 0 0 -1.29251,0 L 8.0944103,15.761777 a 0.91021867,0.90920556 0 0 0 -0.1911459,0.991034 0.91021867,0.90920556 0 0 0 0.8374011,0.563707 h 0.9102187 v 6.637201 a 1.611087,1.6092938 0 0 0 1.6656998,1.545649 h 2.430284 a 0.91021867,0.90920556 0 0 0 0.910218,-0.909205 v -4.455107 a 0.91021867,0.90920556 0 0 1 0.910219,-0.909206 h 2.730656 a 0.91021867,0.90920556 0 0 1 0.910219,0.909206 v 4.455107 a 0.91021867,0.90920556 0 0 0 0.910219,0.909205 h 2.430283 a 1.611087,1.6092938 0 0 0 1.6657,-1.545649 v -6.637201 h 0.910219 a 0.91021867,0.90920556 0 0 0 0.837401,-0.563707 0.91021867,0.90920556 0 0 0 -0.191146,-0.991034 z"
           style="display:inline;fill:#ffffff;fill-opacity:1;stroke-width:0.909708" /></g><g
         id="g96"
         transform="matrix(1.9988845,0,0,2.0011118,203.22028,135.58273)"
         style="display:inline"><ellipse
           style="display:inline;fill:#191919;fill-opacity:1;stroke-width:3.18241;stroke-linecap:round;paint-order:stroke fill markers"
           id="ellipse94"
           cx="35.879814"
           cy="35.860806"
           rx="40.030334"
           ry="40.255131"
           transform="matrix(0.42324855,0,0,0.42041654,1.7465541,1.8575581)" /><g
           id="g95"
           style="display:inline"
           transform="matrix(0.42324855,0,0,0.42041654,1.7465541,1.8575581)"><path
             style="mix-blend-mode:normal;fill:#000000;fill-opacity:0.936031;stroke:none;stroke-width:0.264583;stroke-linejoin:bevel;paint-order:stroke fill markers;filter:url(#filter7492)"
             d="M 3.9349386,28.67036 C 4.0768717,24.644356 5.1044047,21.454195 6.8427682,18.374906 8.5811317,15.295618 11.030197,12.327457 14.691156,9.6036381 18.352115,6.8798195 23.224501,4.4006313 28.766401,3.8142518 c 5.5419,-0.5863795 11.752461,0.7200021 16.721615,2.7888622 4.969154,2.06886 8.696329,4.899796 8.432311,5.541954 -0.264018,0.642158 -4.519217,-0.904427 -8.100309,-1.532937 -3.581093,-0.6285092 -6.487565,-0.338728 -9.180187,0.31119 -2.692622,0.649917 -5.170974,1.659925 -8.498793,3.020433 -3.327819,1.360507 -7.504703,3.07135 -11.253441,5.580973 -3.748738,2.509623 -7.0687439,5.81767 -8.9319521,9.766767 -1.8632081,3.949098 -2.2693743,8.538531 -2.8442295,8.40251 C 4.5365603,37.557983 3.7930055,32.696364 3.9349386,28.67036 Z"
             id="path94"
             transform="matrix(1.2102557,0,0,1.6050979,0.87267101,2.6589991)" /><path
             style="mix-blend-mode:normal;fill:#000000;fill-opacity:0.936031;stroke:none;stroke-width:0.264583;stroke-linejoin:bevel;paint-order:stroke fill markers;filter:url(#filter7406)"
             d="m 22.751343,58.503381 c 0.305992,-4.70239 1.333524,-7.892551 3.071888,-10.97184 1.738364,-3.079289 4.18743,-6.047449 7.848389,-8.771268 3.660958,-2.723818 8.533344,-5.203006 14.227316,-5.678915 5.693972,-0.475909 12.204048,1.050312 17.30221,3.865842 5.098162,2.81553 8.77236,6.913927 7.57288,8.020689 -1.19948,1.106762 -7.274247,-0.781395 -11.560065,-1.917776 -4.285819,-1.136382 -6.783261,-1.521169 -9.207319,-1.424144 -2.424059,0.09702 -4.773455,0.675595 -7.692035,2.155715 -2.918579,1.48012 -6.404184,3.860699 -9.237617,6.261002 -2.833433,2.400303 -5.013186,4.819054 -6.871513,9.086556 -1.858326,4.267502 -3.393921,10.381061 -4.369513,10.332607 -0.975593,-0.04846 -1.390612,-6.256078 -1.084621,-10.958468 z"
             id="path95"
             transform="matrix(-1.0882031,0.15663458,-0.12987556,-1.312412,94.579031,95.602561)" /></g><ellipse
           style="display:inline;mix-blend-mode:normal;fill:#191919;fill-opacity:1;stroke:none;stroke-width:3.18241;stroke-linecap:round;paint-order:stroke fill markers"
           id="ellipse95"
           cx="35.879814"
           cy="35.860806"
           rx="40.030334"
           ry="40.255131"
           transform="matrix(0.42324855,0,0,0.42041654,1.7465541,1.8575581)" /><text
           xml:space="preserve"
           style="font-style:normal;font-variant:normal;font-weight:normal;font-stretch:normal;font-size:50.8px;font-family:'Rounded Mplus 1c Bold';-inkscape-font-specification:'Rounded Mplus 1c Bold, ';text-align:end;letter-spacing:0px;word-spacing:0px;text-anchor:end;fill:#ffffff;fill-opacity:1;stroke:none;stroke-width:5.29167;stroke-linecap:round;stroke-dasharray:none;stroke-opacity:1"
           x="523.62097"
           y="120.396"
           id="text95"
           transform="matrix(0.50027903,0,0,0.49972221,-237.20911,-33.837739)"><tspan
             id="tspan95"
             style="font-style:normal;font-variant:normal;font-weight:normal;font-stretch:normal;font-size:50.8px;font-family:'Rounded Mplus 1c Bold';-inkscape-font-specification:'Rounded Mplus 1c Bold, ';fill:#ffffff;fill-opacity:1;stroke:none;stroke-width:5.29167"
             x="523.62097"
             y="120.396">?</tspan></text></g><g
         id="g125"
         transform="matrix(1.9988845,0,0,2.0011118,270.95362,0.11607885)"
         style="display:inline"><ellipse
           style="display:inline;fill:#191919;fill-opacity:1;stroke-width:3.18241;stroke-linecap:round;paint-order:stroke fill markers"
           id="ellipse123"
           cx="35.879814"
           cy="35.860806"
           rx="40.030334"
           ry="40.255131"
           transform="matrix(0.42324855,0,0,0.42041654,1.7465541,1.8575581)" /><g
           id="g124"
           style="display:inline"
           transform="matrix(0.42324855,0,0,0.42041654,1.7465541,1.8575581)"><path
             style="mix-blend-mode:normal;fill:#000000;fill-opacity:0.936031;stroke:none;stroke-width:0.264583;stroke-linejoin:bevel;paint-order:stroke fill markers;filter:url(#filter7492)"
             d="M 3.9349386,28.67036 C 4.0768717,24.644356 5.1044047,21.454195 6.8427682,18.374906 8.5811317,15.295618 11.030197,12.327457 14.691156,9.6036381 18.352115,6.8798195 23.224501,4.4006313 28.766401,3.8142518 c 5.5419,-0.5863795 11.752461,0.7200021 16.721615,2.7888622 4.969154,2.06886 8.696329,4.899796 8.432311,5.541954 -0.264018,0.642158 -4.519217,-0.904427 -8.100309,-1.532937 -3.581093,-0.6285092 -6.487565,-0.338728 -9.180187,0.31119 -2.692622,0.649917 -5.170974,1.659925 -8.498793,3.020433 -3.327819,1.360507 -7.504703,3.07135 -11.253441,5.580973 -3.748738,2.509623 -7.0687439,5.81767 -8.9319521,9.766767 -1.8632081,3.949098 -2.2693743,8.538531 -2.8442295,8.40251 C 4.5365603,37.557983 3.7930055,32.696364 3.9349386,28.67036 Z"
             id="path123"
             transform="matrix(1.2102557,0,0,1.6050979,0.87267101,2.6589991)" /><path
             style="mix-blend-mode:normal;fill:#000000;fill-opacity:0.936031;stroke:none;stroke-width:0.264583;stroke-linejoin:bevel;paint-order:stroke fill markers;filter:url(#filter7406)"
             d="m 22.751343,58.503381 c 0.305992,-4.70239 1.333524,-7.892551 3.071888,-10.97184 1.738364,-3.079289 4.18743,-6.047449 7.848389,-8.771268 3.660958,-2.723818 8.533344,-5.203006 14.227316,-5.678915 5.693972,-0.475909 12.204048,1.050312 17.30221,3.865842 5.098162,2.81553 8.77236,6.913927 7.57288,8.020689 -1.19948,1.106762 -7.274247,-0.781395 -11.560065,-1.917776 -4.285819,-1.136382 -6.783261,-1.521169 -9.207319,-1.424144 -2.424059,0.09702 -4.773455,0.675595 -7.692035,2.155715 -2.918579,1.48012 -6.404184,3.860699 -9.237617,6.261002 -2.833433,2.400303 -5.013186,4.819054 -6.871513,9.086556 -1.858326,4.267502 -3.393921,10.381061 -4.369513,10.332607 -0.975593,-0.04846 -1.390612,-6.256078 -1.084621,-10.958468 z"
             id="path124"
             transform="matrix(-1.0882031,0.15663458,-0.12987556,-1.312412,94.579031,95.602561)" /></g><ellipse
           style="display:inline;mix-blend-mode:normal;fill:#191919;fill-opacity:1;stroke:none;stroke-width:3.18241;stroke-linecap:round;paint-order:stroke fill markers"
           id="ellipse124"
           cx="35.879814"
           cy="35.860806"
           rx="40.030334"
           ry="40.255131"
           transform="matrix(0.42324855,0,0,0.42041654,1.7465541,1.8575581)" /><path
           fill="#000000"
           d="m 378.82437,84.531568 c -3.74457,-1.380174 -7.83911,-1.490647 -11.65268,-0.314397 -2.63772,0.813586 -5.03976,2.211521 -7.0368,4.071559 l -1.91077,-1.910792 c -1.43246,-1.432451 -3.88172,-0.417936 -3.88172,1.607863 v 9.066501 h 9.06649 c 2.02581,0 3.04031,-2.449266 1.60787,-3.881734 l -1.66342,-1.663414 c 1.47385,-1.340516 3.2325,-2.350151 5.15875,-2.944286 2.86016,-0.882194 5.93107,-0.799335 8.73945,0.2358 2.80844,1.035152 5.1985,2.965109 6.80203,5.492508 1.60352,2.527398 2.33115,5.511951 2.07126,8.493764 -0.25991,2.9818 -1.49325,5.79534 -3.50994,8.00712 -2.01646,2.21179 -4.70461,3.69912 -7.64974,4.23257 -2.9452,0.53344 -5.98411,0.0836 -8.64844,-1.28019 -2.66436,-1.36363 -4.80629,-3.56586 -6.0957,-6.26698 -0.541,-1.1333 -1.89831,-1.61353 -3.03163,-1.07258 -1.1333,0.54094 -1.61346,1.89844 -1.07247,3.03173 1.71924,3.60135 4.57512,6.53758 8.12758,8.35622 3.55247,1.8184 7.60436,2.41802 11.53126,1.70676 3.92701,-0.7115 7.51084,-2.69431 10.19968,-5.6435 2.68884,-2.94897 4.3333,-6.70039 4.68007,-10.67616 0.34653,-3.975758 -0.62395,-7.955179 -2.76184,-11.325038 -2.13788,-3.36986 -5.3247,-5.943141 -9.06929,-7.323324 z"
           id="path125"
           style="fill:#ffffff;fill-opacity:1;stroke-width:2.27386"
           transform="matrix(0.50027903,0,0,0.4997222,-169.43797,-33.837739)" /><circle
           style="fill:#000000;fill-opacity:0.75;stroke:none;stroke-width:5.29167;stroke-linecap:round;stroke-dasharray:none;stroke-opacity:1"
           id="circle143"
           cx="372.53333"
           cy="169.33331"
           r="33.866665"
           transform="matrix(0.50027903,0,0,0.4997222,-169.43797,-67.685584)" /></g><g
         id="g128"
         transform="matrix(1.9988845,0,0,2.0011118,270.95362,67.849403)"
         style="display:inline"><ellipse
           style="display:inline;fill:#191919;fill-opacity:1;stroke-width:3.18241;stroke-linecap:round;paint-order:stroke fill markers"
           id="ellipse125"
           cx="35.879814"
           cy="35.860806"
           rx="40.030334"
           ry="40.255131"
           transform="matrix(0.42324855,0,0,0.42041654,1.7465541,1.8575581)" /><g
           id="g127"
           style="display:inline"
           transform="matrix(0.42324855,0,0,0.42041654,1.7465541,1.8575581)"><path
             style="mix-blend-mode:normal;fill:#000000;fill-opacity:0.936031;stroke:none;stroke-width:0.264583;stroke-linejoin:bevel;paint-order:stroke fill markers;filter:url(#filter7492)"
             d="M 3.9349386,28.67036 C 4.0768717,24.644356 5.1044047,21.454195 6.8427682,18.374906 8.5811317,15.295618 11.030197,12.327457 14.691156,9.6036381 18.352115,6.8798195 23.224501,4.4006313 28.766401,3.8142518 c 5.5419,-0.5863795 11.752461,0.7200021 16.721615,2.7888622 4.969154,2.06886 8.696329,4.899796 8.432311,5.541954 -0.264018,0.642158 -4.519217,-0.904427 -8.100309,-1.532937 -3.581093,-0.6285092 -6.487565,-0.338728 -9.180187,0.31119 -2.692622,0.649917 -5.170974,1.659925 -8.498793,3.020433 -3.327819,1.360507 -7.504703,3.07135 -11.253441,5.580973 -3.748738,2.509623 -7.0687439,5.81767 -8.9319521,9.766767 -1.8632081,3.949098 -2.2693743,8.538531 -2.8442295,8.40251 C 4.5365603,37.557983 3.7930055,32.696364 3.9349386,28.67036 Z"
             id="path126"
             transform="matrix(1.2102557,0,0,1.6050979,0.87267101,2.6589991)" /><path
             style="mix-blend-mode:normal;fill:#000000;fill-opacity:0.936031;stroke:none;stroke-width:0.264583;stroke-linejoin:bevel;paint-order:stroke fill markers;filter:url(#filter7406)"
             d="m 22.751343,58.503381 c 0.305992,-4.70239 1.333524,-7.892551 3.071888,-10.97184 1.738364,-3.079289 4.18743,-6.047449 7.848389,-8.771268 3.660958,-2.723818 8.533344,-5.203006 14.227316,-5.678915 5.693972,-0.475909 12.204048,1.050312 17.30221,3.865842 5.098162,2.81553 8.77236,6.913927 7.57288,8.020689 -1.19948,1.106762 -7.274247,-0.781395 -11.560065,-1.917776 -4.285819,-1.136382 -6.783261,-1.521169 -9.207319,-1.424144 -2.424059,0.09702 -4.773455,0.675595 -7.692035,2.155715 -2.918579,1.48012 -6.404184,3.860699 -9.237617,6.261002 -2.833433,2.400303 -5.013186,4.819054 -6.871513,9.086556 -1.858326,4.267502 -3.393921,10.381061 -4.369513,10.332607 -0.975593,-0.04846 -1.390612,-6.256078 -1.084621,-10.958468 z"
             id="path127"
             transform="matrix(-1.0882031,0.15663458,-0.12987556,-1.312412,94.579031,95.602561)" /></g><ellipse
           style="display:inline;mix-blend-mode:normal;fill:#191919;fill-opacity:1;stroke:none;stroke-width:3.18241;stroke-linecap:round;paint-order:stroke fill markers"
           id="ellipse127"
           cx="35.879814"
           cy="35.860806"
           rx="40.030334"
           ry="40.255131"
           transform="matrix(0.42324855,0,0,0.42041654,1.7465541,1.8575581)" /><path
           id="path1"
           d="M 25.770856,15.761777 17.578888,7.5789257 a 0.91021867,0.90920556 0 0 0 -1.29251,0 L 8.0944106,15.761777 a 0.91021867,0.90920556 0 0 0 -0.1911459,0.991034 0.91021867,0.90920556 0 0 0 0.8374011,0.563707 h 0.9102187 v 6.637201 a 1.611087,1.6092938 0 0 0 1.6656995,1.545649 h 2.430284 a 0.91021867,0.90920556 0 0 0 0.910218,-0.909205 v -4.455107 a 0.91021867,0.90920556 0 0 1 0.910219,-0.909206 h 2.730656 a 0.91021867,0.90920556 0 0 1 0.910219,0.909206 v 4.455107 a 0.91021867,0.90920556 0 0 0 0.910219,0.909205 h 2.430283 a 1.611087,1.6092938 0 0 0 1.6657,-1.545649 v -6.637201 h 0.910219 a 0.91021867,0.90920556 0 0 0 0.837401,-0.563707 0.91021867,0.90920556 0 0 0 -0.191146,-0.991034 z"
           style="display:inline;fill:#ffffff;fill-opacity:1;stroke-width:0.909708" /><ellipse
           style="display:inline;fill:#000000;fill-opacity:0.75;stroke:none;stroke-width:2.64584;stroke-linecap:round;stroke-dasharray:none;stroke-opacity:1"
           id="path143"
           cx="16.932638"
           cy="16.934036"
           rx="16.942781"
           ry="16.923923" /></g><g
         id="g131"
         transform="matrix(1.9988845,0,0,2.0011118,270.95362,135.58273)"
         style="display:inline"><ellipse
           style="display:inline;fill:#191919;fill-opacity:1;stroke-width:3.18241;stroke-linecap:round;paint-order:stroke fill markers"
           id="ellipse128"
           cx="35.879814"
           cy="35.860806"
           rx="40.030334"
           ry="40.255131"
           transform="matrix(0.42324855,0,0,0.42041654,1.7465541,1.8575581)" /><g
           id="g130"
           style="display:inline"
           transform="matrix(0.42324855,0,0,0.42041654,1.7465541,1.8575581)"><path
             style="mix-blend-mode:normal;fill:#000000;fill-opacity:0.936031;stroke:none;stroke-width:0.264583;stroke-linejoin:bevel;paint-order:stroke fill markers;filter:url(#filter7492)"
             d="M 3.9349386,28.67036 C 4.0768717,24.644356 5.1044047,21.454195 6.8427682,18.374906 8.5811317,15.295618 11.030197,12.327457 14.691156,9.6036381 18.352115,6.8798195 23.224501,4.4006313 28.766401,3.8142518 c 5.5419,-0.5863795 11.752461,0.7200021 16.721615,2.7888622 4.969154,2.06886 8.696329,4.899796 8.432311,5.541954 -0.264018,0.642158 -4.519217,-0.904427 -8.100309,-1.532937 -3.581093,-0.6285092 -6.487565,-0.338728 -9.180187,0.31119 -2.692622,0.649917 -5.170974,1.659925 -8.498793,3.020433 -3.327819,1.360507 -7.504703,3.07135 -11.253441,5.580973 -3.748738,2.509623 -7.0687439,5.81767 -8.9319521,9.766767 -1.8632081,3.949098 -2.2693743,8.538531 -2.8442295,8.40251 C 4.5365603,37.557983 3.7930055,32.696364 3.9349386,28.67036 Z"
             id="path129"
             transform="matrix(1.2102557,0,0,1.6050979,0.87267101,2.6589991)" /><path
             style="mix-blend-mode:normal;fill:#000000;fill-opacity:0.936031;stroke:none;stroke-width:0.264583;stroke-linejoin:bevel;paint-order:stroke fill markers;filter:url(#filter7406)"
             d="m 22.751343,58.503381 c 0.305992,-4.70239 1.333524,-7.892551 3.071888,-10.97184 1.738364,-3.079289 4.18743,-6.047449 7.848389,-8.771268 3.660958,-2.723818 8.533344,-5.203006 14.227316,-5.678915 5.693972,-0.475909 12.204048,1.050312 17.30221,3.865842 5.098162,2.81553 8.77236,6.913927 7.57288,8.020689 -1.19948,1.106762 -7.274247,-0.781395 -11.560065,-1.917776 -4.285819,-1.136382 -6.783261,-1.521169 -9.207319,-1.424144 -2.424059,0.09702 -4.773455,0.675595 -7.692035,2.155715 -2.918579,1.48012 -6.404184,3.860699 -9.237617,6.261002 -2.833433,2.400303 -5.013186,4.819054 -6.871513,9.086556 -1.858326,4.267502 -3.393921,10.381061 -4.369513,10.332607 -0.975593,-0.04846 -1.390612,-6.256078 -1.084621,-10.958468 z"
             id="path130"
             transform="matrix(-1.0882031,0.15663458,-0.12987556,-1.312412,94.579031,95.602561)" /></g><ellipse
           style="display:inline;mix-blend-mode:normal;fill:#191919;fill-opacity:1;stroke:none;stroke-width:3.18241;stroke-linecap:round;paint-order:stroke fill markers"
           id="ellipse130"
           cx="35.879814"
           cy="35.860806"
           rx="40.030334"
           ry="40.255131"
           transform="matrix(0.42324855,0,0,0.42041654,1.7465541,1.8575581)" /><text
           xml:space="preserve"
           style="font-style:normal;font-variant:normal;font-weight:normal;font-stretch:normal;font-size:50.8px;font-family:'Rounded Mplus 1c Bold';-inkscape-font-specification:'Rounded Mplus 1c Bold, ';text-align:end;letter-spacing:0px;word-spacing:0px;text-anchor:end;fill:#ffffff;fill-opacity:1;stroke:none;stroke-width:5.29167;stroke-linecap:round;stroke-dasharray:none;stroke-opacity:1"
           x="523.62097"
           y="120.396"
           id="text130"
           transform="matrix(0.50027903,0,0,0.49972221,-237.20911,-33.837739)"><tspan
             id="tspan130"
             style="font-style:normal;font-variant:normal;font-weight:normal;font-stretch:normal;font-size:50.8px;font-family:'Rounded Mplus 1c Bold';-inkscape-font-specification:'Rounded Mplus 1c Bold, ';fill:#ffffff;fill-opacity:1;stroke:none;stroke-width:5.29167"
             x="523.62097"
             y="120.396">?</tspan></text><ellipse
           style="display:inline;fill:#000000;fill-opacity:0.75;stroke:none;stroke-width:2.64584;stroke-linecap:round;stroke-dasharray:none;stroke-opacity:1"
           id="circle144"
           cx="16.932632"
           cy="16.934034"
           rx="16.942781"
           ry="16.923923" /></g><g
         id="g63"
         transform="matrix(0.59443955,0,0,0.59390443,23.801241,139.73476)"
         style="display:inline"><g
           id="g66"
           transform="matrix(0,1.2609299,-1.2637414,0,73.917836,28.601147)"><ellipse
             style="display:inline;fill:#6b1e16;fill-opacity:1;stroke-width:3.18241;stroke-linecap:round;paint-order:stroke fill markers"
             id="ellipse61"
             cx="35.879814"
             cy="35.860806"
             rx="40.030334"
             ry="40.255131"
             transform="matrix(0.42324855,0,0,0.42041654,1.7465541,1.8575581)" /></g><g
           id="g70"
           transform="matrix(0,1.2609299,-1.2637414,0,38.332868,64.146516)"><ellipse
             style="display:inline;fill:#7e6907;fill-opacity:1;stroke-width:3.18241;stroke-linecap:round;paint-order:stroke fill markers"
             id="ellipse67"
             cx="35.879814"
             cy="35.860806"
             rx="40.030334"
             ry="40.255131"
             transform="matrix(0.42324855,0,0,0.42041654,1.7465541,1.8575581)" /></g><g
           id="g76"
           transform="matrix(0,1.2609299,-1.2637414,0,2.7479003,28.601143)"><ellipse
             style="display:inline;fill:#314e1b;fill-opacity:1;stroke-width:3.18241;stroke-linecap:round;paint-order:stroke fill markers"
             id="ellipse73"
             cx="35.879814"
             cy="35.860806"
             rx="40.030334"
             ry="40.255131"
             transform="matrix(0.42324855,0,0,0.42041654,1.7465541,1.8575581)" /></g><g
           id="g82"
           transform="matrix(0,1.2609299,-1.2637414,0,38.33287,-6.9442158)"><ellipse
             style="display:inline;fill:#267b8d;fill-opacity:1;stroke-width:3.18241;stroke-linecap:round;paint-order:stroke fill markers"
             id="ellipse79"
             cx="35.879814"
             cy="35.860806"
             rx="40.030334"
             ry="40.255131"
             transform="matrix(0.42324855,0,0,0.42041654,1.7465541,1.8575581)" /></g><ellipse
           style="display:none;fill:#000000;fill-opacity:1;stroke:none;stroke-width:11.1432;stroke-linecap:round;stroke-dasharray:none;stroke-opacity:1"
           id="path87"
           cx="16.932631"
           cy="49.952011"
           rx="56.972431"
           ry="56.909023" /><text
           xml:space="preserve"
           style="font-style:normal;font-variant:normal;font-weight:normal;font-stretch:normal;font-size:59.3132px;font-family:'Rounded Mplus 1c Bold';-inkscape-font-specification:'Rounded Mplus 1c Bold, ';text-align:end;letter-spacing:0px;word-spacing:0px;text-anchor:end;display:inline;fill:#bfbfbf;fill-opacity:1;stroke:#000000;stroke-width:0.889699;stroke-linecap:round;stroke-dasharray:none;stroke-opacity:1"
           x="71.580292"
           y="71.62915"
           id="text224"
           transform="scale(1.000557,0.99944332)"><tspan
             id="tspan224"
             style="font-size:59.3132px;fill:#bfbfbf;fill-opacity:1;stroke:#000000;stroke-width:0.889699;stroke-dasharray:none;stroke-opacity:1"
             x="71.580284"
             y="71.62915">4x4</tspan></text><ellipse
           style="display:none;fill:#000000;fill-opacity:0.75;stroke:none;stroke-width:8.897;stroke-linecap:round;stroke-dasharray:none;stroke-opacity:1"
           id="ellipse244"
           cx="16.932629"
           cy="49.952023"
           rx="56.972427"
           ry="56.909016" /></g><g
         id="g158"
         transform="matrix(-0.59443955,0,0,-0.59510188,111.89472,199.19616)"
         style="display:inline"><g
           id="g148"
           transform="matrix(1.1401479,1.5304183e-6,-1.5468854e-6,1.140148,-2.3730491,68.257929)"
           style="display:inline"><ellipse
             style="display:inline;fill:#2e2146;fill-opacity:1;stroke-width:3.18241;stroke-linecap:round;paint-order:stroke fill markers"
             id="ellipse145"
             cx="35.879814"
             cy="35.860806"
             rx="40.030334"
             ry="40.255131"
             transform="matrix(0.42324855,0,0,0.42041654,1.7465541,1.8575581)" /></g><g
           id="g151"
           transform="matrix(0.92239814,0.66941747,-0.67091007,0.92239813,-23.136968,34.620223)"
           style="display:inline"><ellipse
             style="display:inline;fill:#6b1e16;fill-opacity:1;stroke-width:3.18241;stroke-linecap:round;paint-order:stroke fill markers"
             id="ellipse148"
             cx="35.879814"
             cy="35.860806"
             rx="40.030334"
             ry="40.255131"
             transform="matrix(0.42324855,0,0,0.42041654,1.7465541,1.8575581)" /></g><g
           id="g154"
           transform="matrix(1.1401479,5.6342023e-6,-5.71054e-6,1.140148,-24.506122,0.21485276)"
           style="display:inline"><ellipse
             style="display:inline;fill:#7e6907;fill-opacity:1;stroke-width:3.18241;stroke-linecap:round;paint-order:stroke fill markers"
             id="ellipse151"
             cx="35.879814"
             cy="35.860806"
             rx="40.030334"
             ry="40.255131"
             transform="matrix(0.42324855,0,0,0.42041654,1.7465541,1.8575581)" /></g><g
           id="g157"
           transform="matrix(0.92239339,0.66942416,-0.67091678,0.92239326,34.808568,-7.43269)"
           style="display:inline"><ellipse
             style="display:inline;fill:#314e1b;fill-opacity:1;stroke-width:3.18241;stroke-linecap:round;paint-order:stroke fill markers"
             id="ellipse154"
             cx="35.879814"
             cy="35.860806"
             rx="40.030334"
             ry="40.255131"
             transform="matrix(0.42324855,0,0,0.42041654,1.7465541,1.8575581)" /></g><g
           id="g179"
           transform="matrix(0.35232695,-1.0831377,1.0855528,0.35232693,28.396196,73.949207)"
           style="display:inline"><ellipse
             style="display:inline;fill:#267b8d;fill-opacity:1;stroke-width:3.18241;stroke-linecap:round;paint-order:stroke fill markers"
             id="ellipse176"
             cx="35.879814"
             cy="35.860806"
             rx="40.030334"
             ry="40.255131"
             transform="matrix(0.42324855,0,0,0.42041654,1.7465541,1.8575581)" /></g><ellipse
           style="display:none;fill:#000000;fill-opacity:1;stroke:none;stroke-width:11.1432;stroke-linecap:round;stroke-dasharray:none;stroke-opacity:1"
           id="ellipse144"
           cx="49.952011"
           cy="-16.932631"
           rx="56.909023"
           ry="56.972431"
           transform="rotate(90,-1.8297105e-6,1.2840349e-6)" /><text
           xml:space="preserve"
           style="font-style:normal;font-variant:normal;font-weight:normal;font-stretch:normal;font-size:59.3132px;font-family:'Rounded Mplus 1c Bold';-inkscape-font-specification:'Rounded Mplus 1c Bold, ';text-align:end;letter-spacing:0px;word-spacing:0px;text-anchor:end;display:inline;fill:#bfbfbf;fill-opacity:1;stroke:#000000;stroke-width:0.889699;stroke-linecap:round;stroke-dasharray:none;stroke-opacity:1"
           x="36.428993"
           y="-28.330519"
           id="text223"
           transform="scale(-1.000557,-0.99944332)"><tspan
             id="tspan223"
             style="font-size:59.3132px;fill:#bfbfbf;fill-opacity:1;stroke:#000000;stroke-width:0.889699;stroke-dasharray:none;stroke-opacity:1"
             x="36.428989"
             y="-28.330519">5x5</tspan></text><ellipse
           style="display:none;fill:#000000;fill-opacity:0.75;stroke:none;stroke-width:8.897;stroke-linecap:round;stroke-dasharray:none;stroke-opacity:1"
           id="ellipse242"
           cx="-17.318371"
           cy="-50.181057"
           rx="56.972427"
           ry="56.909016"
           transform="scale(-1)" /></g><g
         id="g193"
         transform="matrix(0.59443955,0,0,0.59510188,157.94647,135.46819)"
         style="display:inline"><g
           id="g184"
           transform="matrix(-0.53440498,0.92458389,-0.92664551,-0.53440504,77.939176,69.939773)"
           style="display:inline"><ellipse
             style="display:inline;fill:#7e6907;fill-opacity:1;stroke-width:3.18241;stroke-linecap:round;paint-order:stroke fill markers"
             id="ellipse183"
             cx="35.879814"
             cy="35.860806"
             rx="40.030334"
             ry="40.255131"
             transform="matrix(0.42324855,0,0,0.42041654,1.7465541,1.8575581)" /></g><g
           id="g186"
           transform="matrix(-0.1117224,1.0617695,-1.0641369,-0.11172242,73.110334,21.638548)"
           style="display:inline"><ellipse
             style="display:inline;fill:#6b1e16;fill-opacity:1;stroke-width:3.18241;stroke-linecap:round;paint-order:stroke fill markers"
             id="ellipse185"
             cx="35.879814"
             cy="35.860806"
             rx="40.030334"
             ry="40.255131"
             transform="matrix(0.42324855,0,0,0.42041654,1.7465541,1.8575581)" /></g><g
           id="g188"
           transform="matrix(1.0688078,5.2816649e-6,-5.3532261e-6,1.0688079,1.4437247,0.2155709)"
           style="display:inline;fill:#7e380d;fill-opacity:1"><ellipse
             style="display:inline;fill:#7e380d;fill-opacity:1;stroke-width:3.18241;stroke-linecap:round;paint-order:stroke fill markers"
             id="ellipse187"
             cx="35.879814"
             cy="35.860806"
             rx="40.030334"
             ry="40.255131"
             transform="matrix(0.42324855,0,0,0.42041654,1.7465541,1.8575581)" /></g><g
           id="g190"
           transform="matrix(0.9764083,-0.43423106,0.43519915,0.97640825,-38.01857,28.54333)"
           style="display:inline;fill:#2e2146;fill-opacity:1"><ellipse
             style="display:inline;fill:#2e2146;fill-opacity:1;stroke-width:3.18241;stroke-linecap:round;paint-order:stroke fill markers"
             id="ellipse189"
             cx="35.879814"
             cy="35.860806"
             rx="40.030334"
             ry="40.255131"
             transform="matrix(0.42324855,0,0,0.42041654,1.7465541,1.8575581)" /></g><g
           id="g192"
           transform="matrix(-1.0454521,0.22196857,-0.22246354,-1.0454522,7.3537336,90.490994)"
           style="display:inline"><ellipse
             style="display:inline;fill:#267b8d;fill-opacity:1;stroke-width:3.18241;stroke-linecap:round;paint-order:stroke fill markers"
             id="ellipse191"
             cx="35.879814"
             cy="35.860806"
             rx="40.030334"
             ry="40.255131"
             transform="matrix(0.42324855,0,0,0.42041654,1.7465541,1.8575581)" /></g><g
           id="g198"
           transform="matrix(-1.0688078,-1.4346586e-6,1.4500953e-6,-1.0688079,37.639065,114.05534)"
           style="display:inline"><ellipse
             style="display:inline;fill:#314e1b;fill-opacity:1;stroke-width:3.18241;stroke-linecap:round;paint-order:stroke fill markers"
             id="ellipse197"
             cx="35.879814"
             cy="35.860806"
             rx="40.030334"
             ry="40.255131"
             transform="matrix(0.42324855,0,0,0.42041654,1.7465541,1.8575581)" /></g><ellipse
           style="display:none;fill:#000000;fill-opacity:1;stroke:none;stroke-width:11.1432;stroke-linecap:round;stroke-dasharray:none;stroke-opacity:1"
           id="ellipse182"
           cx="57.135487"
           cy="-19.541359"
           rx="56.909019"
           ry="56.972431"
           transform="rotate(90)" /><text
           xml:space="preserve"
           style="font-style:normal;font-variant:normal;font-weight:normal;font-stretch:normal;font-size:59.3132px;font-family:'Rounded Mplus 1c Bold';-inkscape-font-specification:'Rounded Mplus 1c Bold, ';text-align:end;letter-spacing:0px;word-spacing:0px;text-anchor:end;fill:#bfbfbf;fill-opacity:1;stroke:#000000;stroke-width:0.889699;stroke-linecap:round;stroke-dasharray:none;stroke-opacity:1"
           x="72.882683"
           y="78.816628"
           id="text222"
           transform="scale(1.000557,0.99944332)"><tspan
             id="tspan222"
             style="font-size:59.3132px;fill:#bfbfbf;fill-opacity:1;stroke:#000000;stroke-width:0.889699;stroke-dasharray:none;stroke-opacity:1"
             x="72.882675"
             y="78.816628">6x6</tspan></text><ellipse
           style="display:none;fill:#000000;fill-opacity:0.75;stroke:none;stroke-width:8.897;stroke-linecap:round;stroke-dasharray:none;stroke-opacity:1"
           id="ellipse243"
           cx="19.155617"
           cy="56.906441"
           rx="56.972427"
           ry="56.909016"
           transform="translate(2.046944e-6)" /></g><g
         id="g228"
         transform="matrix(0.59433975,0,0,0.59510188,23.797245,71.873454)"
         style="display:inline"><g
           id="g224"
           transform="matrix(0,1.2583925,-1.2637414,0,73.91784,28.758646)"><ellipse
             style="display:inline;fill:#d3422f;fill-opacity:1;stroke-width:3.18241;stroke-linecap:round;paint-order:stroke fill markers"
             id="ellipse224"
             cx="35.879814"
             cy="35.860806"
             rx="40.030334"
             ry="40.255131"
             transform="matrix(0.42324855,0,0,0.42041654,1.7465541,1.8575581)" /></g><g
           id="g225"
           transform="matrix(0,1.2583925,-1.2637414,0,38.332871,64.232488)"><ellipse
             style="display:inline;fill:#f1ce15;fill-opacity:1;stroke-width:3.18241;stroke-linecap:round;paint-order:stroke fill markers"
             id="ellipse225"
             cx="35.879814"
             cy="35.860806"
             rx="40.030334"
             ry="40.255131"
             transform="matrix(0.42324855,0,0,0.42041654,1.7465541,1.8575581)" /></g><g
           id="g226"
           transform="matrix(0,1.2583925,-1.2637414,0,2.7479009,28.758642)"><ellipse
             style="display:inline;fill:#6bae3c;fill-opacity:1;stroke-width:3.18241;stroke-linecap:round;paint-order:stroke fill markers"
             id="ellipse226"
             cx="35.879814"
             cy="35.860806"
             rx="40.030334"
             ry="40.255131"
             transform="matrix(0.42324855,0,0,0.42041654,1.7465541,1.8575581)" /></g><g
           id="g227"
           transform="matrix(0,1.2583925,-1.2637414,0,38.332873,-6.7151892)"><ellipse
             style="display:inline;fill:#60bed4;fill-opacity:1;stroke-width:3.18241;stroke-linecap:round;paint-order:stroke fill markers"
             id="ellipse227"
             cx="35.879814"
             cy="35.860806"
             rx="40.030334"
             ry="40.255131"
             transform="matrix(0.42324855,0,0,0.42041654,1.7465541,1.8575581)" /></g><ellipse
           style="display:none;fill:#040404;fill-opacity:1;stroke:none;stroke-width:11.1432;stroke-linecap:round;stroke-dasharray:none;stroke-opacity:1"
           id="ellipse228"
           cx="16.932631"
           cy="49.952011"
           rx="56.972431"
           ry="56.909023" /><text
           xml:space="preserve"
           style="font-style:normal;font-variant:normal;font-weight:normal;font-stretch:normal;font-size:59.3132px;font-family:'Rounded Mplus 1c Bold';-inkscape-font-specification:'Rounded Mplus 1c Bold, ';text-align:end;letter-spacing:0px;word-spacing:0px;text-anchor:end;display:inline;fill:#ffffff;fill-opacity:1;stroke:#404040;stroke-width:0.889699;stroke-linecap:round;stroke-dasharray:none;stroke-opacity:1"
           x="71.580292"
           y="71.62915"
           id="text228"
           transform="scale(1.000557,0.99944332)"><tspan
             id="tspan228"
             style="font-size:59.3132px;fill:#ffffff;fill-opacity:1;stroke:#404040;stroke-width:0.889699;stroke-dasharray:none;stroke-opacity:1"
             x="71.580284"
             y="71.62915">4x4</tspan></text></g><g
         id="g234"
         transform="matrix(-0.59443955,0,0,-0.59382352,111.66542,131.32623)"
         style="display:inline"><g
           id="g229"
           transform="matrix(1.1401479,1.5304183e-6,-1.5468854e-6,1.140148,-2.3730491,68.257929)"
           style="display:inline"><ellipse
             style="display:inline;fill:#6a4b9e;fill-opacity:1;stroke-width:3.18241;stroke-linecap:round;paint-order:stroke fill markers"
             id="ellipse229"
             cx="35.879814"
             cy="35.860806"
             rx="40.030334"
             ry="40.255131"
             transform="matrix(0.42324855,0,0,0.42041654,1.7465541,1.8575581)" /></g><g
           id="g230"
           transform="matrix(0.92239814,0.66941747,-0.67091007,0.92239813,-23.136968,34.620223)"
           style="display:inline"><ellipse
             style="display:inline;fill:#d3422f;fill-opacity:1;stroke-width:3.18241;stroke-linecap:round;paint-order:stroke fill markers"
             id="ellipse230"
             cx="35.879814"
             cy="35.860806"
             rx="40.030334"
             ry="40.255131"
             transform="matrix(0.42324855,0,0,0.42041654,1.7465541,1.8575581)" /></g><g
           id="g231"
           transform="matrix(1.1401479,5.6342023e-6,-5.71054e-6,1.140148,-24.506122,0.21485276)"
           style="display:inline"><ellipse
             style="display:inline;fill:#f1ce15;fill-opacity:1;stroke-width:3.18241;stroke-linecap:round;paint-order:stroke fill markers"
             id="ellipse231"
             cx="35.879814"
             cy="35.860806"
             rx="40.030334"
             ry="40.255131"
             transform="matrix(0.42324855,0,0,0.42041654,1.7465541,1.8575581)" /></g><g
           id="g232"
           transform="matrix(0.92239339,0.66942416,-0.67091678,0.92239326,34.808568,-7.43269)"
           style="display:inline"><ellipse
             style="display:inline;fill:#6bae3c;fill-opacity:1;stroke-width:3.18241;stroke-linecap:round;paint-order:stroke fill markers"
             id="ellipse232"
             cx="35.879814"
             cy="35.860806"
             rx="40.030334"
             ry="40.255131"
             transform="matrix(0.42324855,0,0,0.42041654,1.7465541,1.8575581)" /></g><g
           id="g233"
           transform="matrix(0.35232695,-1.0831377,1.0855528,0.35232693,28.396196,73.949207)"
           style="display:inline"><ellipse
             style="display:inline;fill:#60bed4;fill-opacity:1;stroke-width:3.18241;stroke-linecap:round;paint-order:stroke fill markers"
             id="ellipse233"
             cx="35.879814"
             cy="35.860806"
             rx="40.030334"
             ry="40.255131"
             transform="matrix(0.42324855,0,0,0.42041654,1.7465541,1.8575581)" /></g><ellipse
           style="display:none;fill:#040404;fill-opacity:1;stroke:none;stroke-width:11.1432;stroke-linecap:round;stroke-dasharray:none;stroke-opacity:1"
           id="ellipse234"
           cx="49.952011"
           cy="-16.932631"
           rx="56.909023"
           ry="56.972431"
           transform="rotate(90,-1.8297105e-6,1.2840349e-6)" /><text
           xml:space="preserve"
           style="font-style:normal;font-variant:normal;font-weight:normal;font-stretch:normal;font-size:59.3132px;font-family:'Rounded Mplus 1c Bold';-inkscape-font-specification:'Rounded Mplus 1c Bold, ';text-align:end;letter-spacing:0px;word-spacing:0px;text-anchor:end;display:inline;fill:#ffffff;fill-opacity:1;stroke:#404040;stroke-width:0.889699;stroke-linecap:round;stroke-dasharray:none;stroke-opacity:1"
           x="36.428993"
           y="-28.330519"
           id="text234"
           transform="scale(-1.000557,-0.99944332)"><tspan
             id="tspan234"
             style="font-size:59.3132px;fill:#ffffff;fill-opacity:1;stroke:#404040;stroke-width:0.889699;stroke-dasharray:none;stroke-opacity:1"
             x="36.428989"
             y="-28.330519">5x5</tspan></text></g><g
         id="g241"
         transform="matrix(0.59443955,0,0,0.59512333,157.71717,67.734857)"
         style="display:inline"><g
           id="g235"
           transform="matrix(-0.53440498,0.92458389,-0.92664551,-0.53440504,77.939176,69.939773)"
           style="display:inline"><ellipse
             style="display:inline;fill:#f1ce15;fill-opacity:1;stroke-width:3.18241;stroke-linecap:round;paint-order:stroke fill markers"
             id="ellipse235"
             cx="35.879814"
             cy="35.860806"
             rx="40.030334"
             ry="40.255131"
             transform="matrix(0.42324855,0,0,0.42041654,1.7465541,1.8575581)" /></g><g
           id="g236"
           transform="matrix(-0.1117224,1.0617695,-1.0641369,-0.11172242,73.110334,21.638548)"
           style="display:inline"><ellipse
             style="display:inline;fill:#d3422f;fill-opacity:1;stroke-width:3.18241;stroke-linecap:round;paint-order:stroke fill markers"
             id="ellipse236"
             cx="35.879814"
             cy="35.860806"
             rx="40.030334"
             ry="40.255131"
             transform="matrix(0.42324855,0,0,0.42041654,1.7465541,1.8575581)" /></g><g
           id="g237"
           transform="matrix(1.0688078,5.2816649e-6,-5.3532261e-6,1.0688079,1.4437247,0.2155709)"
           style="display:inline;fill:#e77226;fill-opacity:1"><ellipse
             style="display:inline;fill:#e77226;fill-opacity:1;stroke-width:3.18241;stroke-linecap:round;paint-order:stroke fill markers"
             id="ellipse237"
             cx="35.879814"
             cy="35.860806"
             rx="40.030334"
             ry="40.255131"
             transform="matrix(0.42324855,0,0,0.42041654,1.7465541,1.8575581)" /></g><g
           id="g238"
           transform="matrix(0.9764083,-0.43423106,0.43519915,0.97640825,-38.01857,28.54333)"
           style="display:inline;fill:#6a4b9e;fill-opacity:1"><ellipse
             style="display:inline;fill:#6a4b9e;fill-opacity:1;stroke-width:3.18241;stroke-linecap:round;paint-order:stroke fill markers"
             id="ellipse238"
             cx="35.879814"
             cy="35.860806"
             rx="40.030334"
             ry="40.255131"
             transform="matrix(0.42324855,0,0,0.42041654,1.7465541,1.8575581)" /></g><g
           id="g239"
           transform="matrix(-1.0454521,0.22196857,-0.22246354,-1.0454522,7.3537336,90.490994)"
           style="display:inline"><ellipse
             style="display:inline;fill:#60bed4;fill-opacity:1;stroke-width:3.18241;stroke-linecap:round;paint-order:stroke fill markers"
             id="ellipse239"
             cx="35.879814"
             cy="35.860806"
             rx="40.030334"
             ry="40.255131"
             transform="matrix(0.42324855,0,0,0.42041654,1.7465541,1.8575581)" /></g><g
           id="g240"
           transform="matrix(-1.0688078,-1.4346586e-6,1.4500953e-6,-1.0688079,37.639065,114.05534)"
           style="display:inline"><ellipse
             style="display:inline;fill:#6bae3c;fill-opacity:1;stroke-width:3.18241;stroke-linecap:round;paint-order:stroke fill markers"
             id="ellipse240"
             cx="35.879814"
             cy="35.860806"
             rx="40.030334"
             ry="40.255131"
             transform="matrix(0.42324855,0,0,0.42041654,1.7465541,1.8575581)" /></g><ellipse
           style="display:none;fill:#040404;fill-opacity:1;stroke:none;stroke-width:11.1432;stroke-linecap:round;stroke-dasharray:none;stroke-opacity:1"
           id="ellipse241"
           cx="57.135487"
           cy="-19.541359"
           rx="56.909019"
           ry="56.972431"
           transform="rotate(90)" /><text
           xml:space="preserve"
           style="font-style:normal;font-variant:normal;font-weight:normal;font-stretch:normal;font-size:59.3132px;font-family:'Rounded Mplus 1c Bold';-inkscape-font-specification:'Rounded Mplus 1c Bold, ';text-align:end;letter-spacing:0px;word-spacing:0px;text-anchor:end;fill:#ffffff;fill-opacity:1;stroke:#404040;stroke-width:0.889699;stroke-linecap:round;stroke-dasharray:none;stroke-opacity:1"
           x="72.882683"
           y="78.816628"
           id="text241"
           transform="scale(1.000557,0.99944332)"><tspan
             id="tspan241"
             style="font-size:59.3132px;fill:#ffffff;fill-opacity:1;stroke:#404040;stroke-width:0.889699;stroke-dasharray:none;stroke-opacity:1"
             x="72.882675"
             y="78.816628">6x6</tspan></text></g></g><g
       id="layer9"
       style="display:inline;fill:#ffffff;fill-opacity:1;stroke:#000000;stroke-width:0.608069;stroke-dasharray:none;stroke-opacity:1"
       transform="matrix(1.7832926,0,0,1.6987002,169.29815,99.335229)"><ellipse
         style="display:none;fill:#959595;fill-opacity:1;stroke:none;stroke-width:0.608069;stroke-linecap:round;stroke-dasharray:none;stroke-opacity:1;paint-order:stroke fill markers"
         id="ellipse271"
         cx="-75.944626"
         cy="1.333231"
         rx="18.991087"
         ry="19.93681" /><path
         style="display:inline;fill:#ffffff;fill-opacity:1;stroke:#404040;stroke-width:0.912282;stroke-linecap:round;stroke-linejoin:round;stroke-dasharray:none;stroke-opacity:1;paint-order:normal"
         id="path2443"
         d="m 34.297326,16.315553 4.453598,9.333241 a 1.8424889,1.8424889 36.000008 0 0 1.422082,1.033204 l 10.252678,1.351497 a 0.47717617,0.47717617 72.000008 0 1 0.266162,0.819161 l -7.500203,7.119754 a 1.8424889,1.8424889 108.00001 0 0 -0.543187,1.671758 l 1.882902,10.168511 a 0.47717617,0.47717617 144.00001 0 1 -0.69682,0.50627 l -9.088979,-4.932992 a 1.8424889,1.8424889 7.879935e-6 0 0 -1.75779,0 l -9.08898,4.932989 a 0.47717617,0.47717617 36.000008 0 1 -0.696821,-0.50627 l 1.882905,-10.16851 a 1.8424889,1.8424889 72.000008 0 0 -0.543187,-1.671758 l -7.5002,-7.119756 a 0.47717617,0.47717617 108.00001 0 1 0.266161,-0.819162 l 10.252678,-1.351494 a 1.8424889,1.8424889 144.00001 0 0 1.422082,-1.033203 l 4.453601,-9.33324 a 0.47717617,0.47717617 7.8799349e-6 0 1 0.861318,0 z"
         transform="matrix(0.6513095,0,0,0.68211848,-98.002307,-21.81192)" /></g></g></svg>
