<?xml version="1.0" encoding="UTF-8" standalone="no"?>
<!-- Created with Inkscape (http://www.inkscape.org/) -->

<svg
   width="151.06897"
   height="151.23726"
   viewBox="0 0 39.970331 40.014858"
   version="1.1"
   id="svg1"
   xml:space="preserve"
   xmlns="http://www.w3.org/2000/svg"
   xmlns:svg="http://www.w3.org/2000/svg"><defs
     id="defs1" /><g
     id="layer1"
     transform="translate(-149.34816,-13.859239)"><g
       id="g11"
       style="display:inline;fill:#ffffff;fill-opacity:1;stroke:#000000;stroke-width:1.74431;stroke-dasharray:none;stroke-opacity:1"
       transform="matrix(0.90979703,-0.00135603,0.00141905,0.9104075,500.83299,99.021957)"><ellipse
         style="display:none;fill:#959595;fill-opacity:1;stroke:none;stroke-width:1.88168;stroke-linecap:round;stroke-dasharray:none;stroke-opacity:1;paint-order:stroke fill markers"
         id="ellipse2"
         cx="35.879814"
         cy="35.860806"
         rx="40.030334"
         ry="40.255131"
         transform="matrix(0.92990306,0.00138507,-0.00144134,0.92409009,-397.5672,-105.29803)" /><path
         style="display:inline;fill:#ffffff;fill-opacity:1;fill-rule:nonzero;stroke:#404040;stroke-width:9.17065;stroke-dasharray:none;stroke-opacity:1;paint-order:stroke markers fill"
         id="path11"
         d="m 167.04722,161.05419 -27.79772,-7.44684 a 8.0882924,8.0882924 158.42854 0 0 -8.96271,3.54342 l -15.19032,24.44225 a 3.5954072,3.5954072 0.92854239 0 1 -6.16734,-0.1 L 94.538877,156.57139 a 8.0882924,8.0882924 23.428542 0 0 -8.843174,-3.83202 l -28.024452,6.5421 a 3.5954072,3.5954072 45.928542 0 1 -4.29029,-4.43165 l 7.446842,-27.79773 a 8.0882924,8.0882924 68.428542 0 0 -3.543425,-8.96271 L 32.842134,102.89907 a 3.5954072,3.5954072 90.928542 0 1 0.09996,-6.167348 L 57.863765,82.341474 A 8.0882924,8.0882924 113.42854 0 0 61.695779,73.4983 L 55.153678,45.473848 a 3.5954072,3.5954072 135.92854 0 1 4.431652,-4.29029 L 87.383056,48.6304 a 8.0882924,8.0882924 158.42854 0 0 8.962712,-3.543425 L 111.53608,20.644731 a 3.5954072,3.5954072 0.92854239 0 1 6.16735,0.09996 l 14.39025,24.921673 a 8.0882924,8.0882924 23.428542 0 0 8.84317,3.832014 l 28.02445,-6.542101 a 3.5954072,3.5954072 45.928542 0 1 4.29029,4.431652 l -7.44684,27.797726 a 8.0882924,8.0882924 68.428542 0 0 3.54343,8.962712 l 24.44224,15.190315 a 3.5954072,3.5954072 90.928542 0 1 -0.1,6.16735 l -24.92167,14.39024 a 8.0882924,8.0882924 113.42854 0 0 -3.83202,8.84318 l 6.54211,28.02445 a 3.5954072,3.5954072 135.92854 0 1 -4.43166,4.29029 z"
         transform="matrix(0.25352252,-0.00382085,0.00380101,0.2536345,-393.36672,-97.323988)" /></g></g></svg>
