<?xml version="1.0" encoding="UTF-8" standalone="no"?>
<!-- Created with Inkscape (http://www.inkscape.org/) -->

<svg
   width="255.99998"
   height="255.99998"
   viewBox="0 0 67.733328 67.733328"
   version="1.1"
   id="svg1"
   xml:space="preserve"
   xmlns="http://www.w3.org/2000/svg"
   xmlns:svg="http://www.w3.org/2000/svg"><defs
     id="defs1" /><g
     id="layer1"
     transform="translate(-203.2)"><g
       id="g17"
       style="display:inline;stroke-width:2.23552;stroke-dasharray:none"
       transform="matrix(0.67028472,0.66903647,-0.66794802,0.67078242,465.88801,82.865475)"><ellipse
         style="display:none;fill:#959595;fill-opacity:1;stroke:none;stroke-width:2.32574;stroke-linecap:round;stroke-dasharray:none;stroke-opacity:1;paint-order:stroke fill markers"
         id="ellipse269"
         cx="-289.91742"
         cy="-71.567093"
         rx="37.224373"
         ry="37.199413"
         transform="matrix(0.68073484,-0.67896298,0.67831315,0.68068611,38.18437,-13.998957)" /><path
         id="rect12"
         style="display:inline;fill:#ffffff;fill-opacity:1;fill-rule:nonzero;stroke:#404040;stroke-width:2.23552;stroke-dasharray:none;stroke-opacity:1;paint-order:stroke markers fill"
         d="m -229.11532,132.35146 a 2.6738031,2.6750023 4.5954046 0 0 -0.65572,1.75063 2.6738031,2.6750023 4.5954046 0 0 2.66911,2.67903 2.6738031,2.6750023 4.5954046 0 0 5.8e-4,0 l 16.71135,0.0251 -0.0261,16.71788 a 2.6738031,2.6750023 4.5954046 0 1 -1e-5,5.8e-4 2.6738031,2.6750023 4.5954046 0 0 2.66969,2.67903 2.6738031,2.6750023 4.5954046 0 0 2.67813,-2.67115 2.6738031,2.6750023 4.5954046 0 1 0,-5.8e-4 l 0.0261,-16.71788 16.71048,0.0248 a 2.6738031,2.6750023 4.5954046 0 0 5.8e-4,0 2.6738031,2.6750023 4.5954046 0 0 2.67812,-2.67115 2.6738031,2.6750023 4.5954046 0 0 -2.66969,-2.67903 2.6738031,2.6750023 4.5954046 0 0 -5.7e-4,0 l -16.71048,-0.0248 0.0258,-16.71875 a 2.6738031,2.6750023 4.5954046 0 1 0,-5.7e-4 2.6738031,2.6750023 4.5954046 0 0 -2.66969,-2.67846 2.6738031,2.6750023 4.5954046 0 0 -2.67813,2.67058 l -0.0261,16.71904 -16.71106,-0.0248 a 2.6738031,2.6750023 4.5954046 0 0 -5.7e-4,0 2.6738031,2.6750023 4.5954046 0 0 -2.02183,0.92053 z" /></g></g></svg>
